<?xml version="1.0" encoding="UTF-8"?>
<svg id="Calque_2" data-name="Calque 2" xmlns="http://www.w3.org/2000/svg" viewBox="0 0 42.76 16.79">
  <g id="Calque_1-2" data-name="Calque 1">
    <g>
      <path d="M10.46,5.1c-.34.06-.63.19-.89.39-.26.2-.49.46-.69.76-.2.3-.39.64-.55,1.03-.16.38-.32.79-.46,1.21-.26.74-.49,1.48-.71,2.24-.22.76-.44,1.52-.67,2.29-.17.54-.38,1.03-.62,1.47-.25.44-.55.83-.89,1.16-.35.33-.75.59-1.21.79-.46.2-.97.31-1.55.35-.11,0-.27,0-.47,0-.2-.01-.41-.03-.62-.07-.22-.03-.43-.07-.64-.12-.21-.05-.37-.1-.49-.17l.17-.16c.06.05.19.09.37.14s.38.08.59.11c.21.03.41.06.6.07.19.02.32.02.4.01.5-.03.94-.15,1.31-.36s.69-.47.96-.8c.27-.32.5-.69.68-1.1s.35-.84.5-1.28c.25-.75.49-1.51.71-2.27.23-.76.49-1.52.77-2.27.16-.42.34-.81.53-1.17.2-.36.41-.69.65-.99.24-.3.51-.55.81-.77.3-.22.63-.39,1-.51-.47,0-.98,0-1.53.02-.55.02-1.1.08-1.66.16s-1.1.19-1.62.34c-.52.15-1,.34-1.43.58-.43.24-.8.53-1.1.88-.3.34-.51.76-.61,1.24-.15.69-.11,1.23.13,1.62.24.39.65.59,1.22.59.22,0,.44-.05.65-.14.21-.09.4-.21.58-.37.18-.15.33-.33.47-.54.14-.21.25-.42.33-.65.08-.23.13-.47.16-.7.03-.24.02-.45-.02-.64s-.12-.35-.23-.47c-.12-.12-.28-.18-.49-.18-.12,0-.24.02-.35.06-.12.04-.22.09-.32.15-.1.06-.19.12-.26.19-.08.07-.13.13-.16.17l-.14-.08c.12-.16.3-.31.53-.45.24-.14.49-.21.77-.21.26,0,.49.07.68.2.19.14.34.31.44.51s.17.43.19.67c.02.24,0,.47-.08.69-.1.3-.23.56-.41.8-.18.24-.38.45-.62.62-.24.17-.5.31-.79.4s-.6.14-.92.14c-.42,0-.79-.07-1.09-.2-.3-.14-.55-.31-.73-.53-.18-.22-.3-.47-.36-.76s-.06-.59,0-.9c.11-.54.34-.99.7-1.36.35-.37.78-.68,1.28-.93s1.06-.44,1.68-.58c.62-.14,1.25-.24,1.89-.31.64-.07,1.28-.11,1.9-.13s1.2-.02,1.72-.01v.12Z"/>
      <path d="M7.34,6.84v-.18h3.04c.43,0,.84.07,1.24.2.39.13.74.36,1.03.68s.53.75.71,1.3c.18.54.26,1.22.26,2.04s-.09,1.49-.26,2.03c-.18.54-.41.97-.71,1.28-.3.32-.64.54-1.03.67-.39.13-.8.2-1.24.2h-3.04v-.18h.42c.16,0,.29-.05.39-.15.1-.1.15-.23.15-.39v-6.96c0-.16-.05-.29-.15-.39-.1-.1-.23-.15-.39-.15h-.42ZM10.38,14.88c.54,0,.98-.13,1.3-.39.32-.26.56-.59.73-.98.16-.4.27-.83.31-1.3.04-.47.07-.91.07-1.34s-.02-.87-.07-1.34c-.04-.47-.15-.91-.31-1.31-.16-.4-.41-.73-.73-.99-.32-.26-.75-.39-1.3-.39h-1.24v8.04h1.24ZM10.94,11.99h-.12v-.28c0-.25-.07-.45-.22-.59s-.35-.22-.59-.22h-.28v-.12h.28c.25,0,.45-.07.59-.22s.22-.35.22-.59v-.26h.12v.26c0,.25.07.45.22.59s.35.22.59.22h.26v.12h-.26c-.25,0-.45.07-.59.22s-.22.35-.22.59v.28Z"/>
      <path d="M21.5,7.94l-.78,2.28h.4c.16,0,.29-.05.39-.15.1-.1.15-.23.15-.39v-.54h.18v2.34h-.18v-.54c0-.16-.05-.29-.15-.39-.1-.1-.23-.15-.39-.15h-.46l-1.6,4.66h-4.85v-.18h.42c.16,0,.29-.05.39-.15.1-.1.15-.23.15-.39v-6.96c0-.16-.05-.29-.15-.39-.1-.1-.23-.15-.39-.15h-.42v-.18h5.26l.12,1.26h-.18l-.06-.54c-.02-.16-.08-.29-.19-.39-.11-.1-.25-.15-.41-.15h-2.74v3.38h4.51l1.22-3.56h.19l2.76,7.72c.06.15.15.27.28.37.13.09.28.14.44.14h.36v.18h-2.68v-.18h.35c.16,0,.27-.05.34-.14.07-.09.07-.21.02-.37l-2.32-6.43ZM18.19,14.88c.5,0,.84-.27,1.02-.8l1.26-3.67h-4.45v4.48h2.17Z"/>
      <path d="M31.9,12.84c0,.72-.24,1.29-.73,1.71-.49.42-1.2.63-2.12.63-.88,0-1.59-.25-2.14-.76l-.24-1.67h.18c.02.25.08.5.18.77.1.26.23.51.41.73.18.22.4.4.66.54.26.14.58.21.95.21.39,0,.72-.06.98-.17.26-.11.47-.26.62-.44.15-.18.26-.4.32-.65s.09-.51.09-.78c0-.38-.1-.68-.31-.92-.2-.24-.46-.45-.77-.64s-.65-.36-1-.52-.69-.35-1-.56-.57-.47-.77-.77c-.2-.3-.31-.68-.31-1.15,0-.28.04-.52.13-.73s.2-.38.35-.52c.15-.14.33-.25.53-.34.2-.09.42-.15.66-.19-.74-.18-1.32-.54-1.74-1.08s-.62-1.22-.62-2.02c0-.62.1-1.16.31-1.6s.48-.81.82-1.09c.34-.28.73-.49,1.18-.62.44-.13.9-.2,1.36-.2.56,0,1.07.09,1.52.28.46.19.88.43,1.26.74.38.3.74.65,1.08,1.04.34.39.67.79.99,1.21.32.41.66.81,1,1.21.34.39.7.74,1.09,1.04.38.3.81.55,1.27.74s.97.28,1.54.28c.43,0,.83-.06,1.19-.19.36-.13.68-.31.94-.55.26-.24.47-.53.62-.88s.22-.75.22-1.19c0-.4-.07-.75-.22-1.06-.15-.3-.34-.55-.59-.75-.24-.2-.52-.33-.84-.41-.32-.08-.64-.1-.98-.06v-.18c.38-.05.75-.02,1.09.08.34.1.64.26.89.47.26.22.46.48.61.8.15.32.22.68.22,1.08,0,.44-.07.85-.22,1.22-.15.37-.36.69-.63.96-.27.27-.6.48-1,.62-.39.15-.83.22-1.32.22-.58,0-1.11-.09-1.58-.28-.47-.19-.9-.43-1.29-.74-.39-.3-.76-.65-1.1-1.04-.34-.39-.67-.79-1-1.21-.32-.41-.65-.81-.98-1.21s-.69-.74-1.07-1.04c-.38-.3-.79-.55-1.23-.74-.44-.19-.94-.28-1.49-.28-.43,0-.86.06-1.28.18-.42.12-.79.31-1.12.58-.33.27-.59.61-.79,1.04-.2.42-.3.94-.3,1.54,0,.48.08.91.24,1.28s.38.69.67.95c.28.26.62.45,1.01.59.39.14.82.2,1.27.2.4.02.75.09,1.04.22.29.13.57.31.82.54l.24,1.67h-.18c-.02-.25-.07-.5-.15-.77-.08-.26-.19-.51-.35-.73-.16-.22-.36-.4-.61-.54s-.57-.21-.97-.21c-.54,0-.95.13-1.23.38-.28.26-.41.63-.41,1.12,0,.36.1.66.31.9.2.24.46.45.77.64s.64.37,1,.55.69.37,1,.59c.31.22.56.48.77.79.2.31.31.69.31,1.15Z"/>
    </g>
  </g>
</svg>