<svg width="500" height="215" viewBox="0 0 500 215" fill="none" xmlns="http://www.w3.org/2000/svg">
<path d="M37.1705 1.31577C37.4994 1.64471 37.6639 2.30259 37.6639 3.28942C37.6639 4.1666 37.6091 5.15343 37.4994 6.2499C37.3898 7.34638 37.2253 8.38803 37.006 9.37485C36.8964 10.252 36.8415 10.8003 36.8415 11.0196C36.8415 12.116 36.6771 13.1577 36.3481 14.1445C36.1288 15.1313 35.9095 16.173 35.6902 17.2695C35.4709 18.9142 35.3613 20.5041 35.3613 22.0391C35.3613 23.4646 35.0872 25.0544 34.5389 26.8088C33.9907 28.6728 33.3328 30.7013 32.5653 32.8942C31.9074 35.0872 31.8526 37.4446 32.4008 39.9665C32.9491 42.4884 33.0039 45.0651 32.5653 47.6966C32.2363 50.2185 31.9622 52.8501 31.7429 55.5913C31.9622 56.6877 32.1815 57.7842 32.4008 58.8807C32.6201 59.8675 32.8394 60.9092 33.0587 62.0056C32.8394 62.6635 32.6749 63.3214 32.5653 63.9793C32.5653 64.5275 32.4556 65.1306 32.2363 65.7885C31.9074 67.5428 31.8526 69.2972 32.0719 71.0515C32.2912 72.8059 32.2912 74.5054 32.0719 76.1501C31.8526 78.0142 31.7429 79.9878 31.7429 82.0711C31.7429 84.1544 31.5785 86.0184 31.2495 87.6631C31.3592 88.2114 31.414 88.7596 31.414 89.3078C31.5236 89.7464 31.6333 90.2398 31.7429 90.7881C31.414 92.981 30.9754 95.2288 30.4272 97.5314C29.9886 99.834 29.6048 102.137 29.2759 104.439C29.0566 105.865 29.2759 107.29 29.9338 108.715C30.7013 110.141 31.085 111.402 31.085 112.498C30.6465 115.459 30.2627 118.419 29.9338 121.38C29.6048 124.34 29.221 127.246 28.7825 130.097C28.5632 130.974 28.5632 131.687 28.7825 132.235C29.0017 132.783 29.0566 133.386 28.9469 134.044C28.618 136.127 28.4535 138.485 28.4535 141.116C28.4535 143.748 28.2342 145.996 27.7956 147.86C27.9053 148.517 27.9601 149.175 27.9601 149.833C27.9601 150.491 28.0149 151.149 28.1246 151.807C27.7956 155.864 27.6312 160.085 27.6312 164.471C27.6312 168.857 27.3022 173.078 26.6443 177.135C26.5347 177.793 26.425 178.67 26.3154 179.767C26.2057 180.973 26.0961 182.124 25.9864 183.221C25.8768 184.427 25.7123 185.469 25.493 186.346C25.3834 187.223 25.1641 187.716 24.8351 187.826C24.9448 185.523 25.0544 183.221 25.1641 180.918C25.2737 178.725 25.3834 176.478 25.493 174.175C25.1641 170.228 24.9996 165.677 24.9996 160.524C25.1093 155.48 25.4382 150.656 25.9864 146.05C25.9864 145.173 25.9864 144.296 25.9864 143.419C25.9864 142.542 25.9316 141.664 25.822 140.787C26.0413 138.814 26.0961 136.73 25.9864 134.537C25.8768 132.454 25.7671 130.316 25.6575 128.123C25.6575 126.698 25.9316 124.834 26.4799 122.531C27.0281 120.119 27.4119 118.145 27.6312 116.61C27.9601 114.527 27.8504 112.608 27.3022 110.854C26.8636 109.099 26.425 107.345 25.9864 105.59C25.8768 105.042 25.822 104.33 25.822 103.452C25.9316 102.466 26.0413 101.534 26.1509 100.656C26.3702 99.6695 26.5895 98.7923 26.8088 98.0248C27.0281 97.1476 27.2474 96.5446 27.4667 96.2156C27.2474 95.8867 26.9733 95.6126 26.6443 95.3933C26.425 95.174 26.3702 94.845 26.4799 94.4064C26.4799 93.6389 26.6443 92.9262 26.9733 92.2683C27.4119 91.5008 27.7408 90.7333 27.9601 89.9657C27.9601 89.1982 27.9053 88.4307 27.7956 87.6631C27.7956 86.8956 27.7956 86.1281 27.7956 85.3605C27.7956 85.2509 27.8504 85.1412 27.9601 85.0316C28.1794 84.8123 28.289 84.593 28.289 84.3737C28.5083 82.9483 28.289 81.7422 27.6312 80.7553C27.0829 79.7685 27.0281 78.5624 27.4667 77.137C27.5763 76.6984 27.686 76.0953 27.7956 75.3278C27.9053 74.4506 27.9601 73.6831 27.9601 73.0252C27.9601 72.2577 27.9053 71.5998 27.7956 71.0515C27.686 70.3937 27.5215 70.0099 27.3022 69.9002C26.754 71.6546 26.0961 73.2445 25.3286 74.6699C24.6707 75.9857 23.958 77.4111 23.1904 78.9462C23.1904 79.4944 23.1356 79.9878 23.026 80.4264C23.026 80.865 23.026 81.3036 23.026 81.7422C22.0391 84.0448 21.2716 86.5667 20.7234 89.3078C20.1751 92.049 19.6269 94.6806 19.0787 97.2025C19.0787 98.0796 19.0787 98.902 19.0787 99.6695C19.1883 100.437 19.2431 101.259 19.2431 102.137C18.9142 104.22 18.8045 106.468 18.9142 108.88C19.1335 111.292 19.3528 113.759 19.5721 116.281C19.7914 118.693 19.901 121.16 19.901 123.682C20.0107 126.095 19.8462 128.452 19.4076 130.755L18.9142 130.261C19.1335 129.274 19.1883 127.849 19.0787 125.985C19.0787 124.121 18.969 122.202 18.7497 120.228C18.6401 118.145 18.4208 116.171 18.0918 114.307C17.8725 112.443 17.6532 110.908 17.4339 109.702C17.3243 108.386 17.2695 107.071 17.2695 105.755C17.2695 104.439 17.2146 103.178 17.105 101.972C16.6664 99.1213 16.3923 96.2704 16.2826 93.4196C16.173 90.4591 15.8441 87.389 15.2958 84.2092C14.9669 82.3452 14.309 80.5909 13.3222 78.9462C12.3353 77.1918 11.5678 75.3826 11.0196 73.5186C10.8003 72.6414 10.9099 71.9835 11.3485 71.545C11.8967 71.1064 12.1709 70.4485 12.1709 69.5713C11.9516 69.0231 11.5678 68.4748 11.0196 67.9266C10.4713 67.3783 10.0876 66.8301 9.86827 66.2819C9.86827 65.8433 9.81345 65.4595 9.7038 65.1306C9.7038 64.692 9.7038 64.2534 9.7038 63.8148C9.4845 64.0341 9.32003 64.1437 9.21038 64.1437C8.99109 65.8981 8.7718 67.6525 8.5525 69.4068C8.44285 71.1612 8.16873 72.6962 7.73014 74.012C7.73014 74.5603 7.73014 75.1085 7.73014 75.6567C7.73014 76.0953 7.67532 76.5887 7.56567 77.137C7.23673 78.2334 6.68849 79.1655 5.92096 79.933C5.26308 80.5909 4.71484 81.468 4.27625 82.5645C4.3859 83.2224 4.44072 83.8803 4.44072 84.5382C4.55037 85.1961 4.60519 85.8539 4.60519 86.5118C4.49554 88.5951 4.27625 90.6784 3.94731 92.7617C3.72801 94.7354 3.39907 96.709 2.96048 98.6827C2.74119 99.5599 2.68636 100.711 2.79601 102.137C3.0153 103.562 3.2346 104.713 3.45389 105.59C3.45389 106.687 3.39907 107.783 3.28942 108.88C3.28942 109.867 3.2346 110.908 3.12495 112.005C3.45389 112.772 3.67319 113.869 3.78284 115.294C3.89248 116.61 3.94731 118.035 3.94731 119.571C3.94731 120.996 3.89248 122.421 3.78284 123.847C3.78284 125.272 3.72801 126.369 3.61837 127.136C3.39907 128.781 3.39907 130.371 3.61837 131.906C3.83766 133.441 4.11178 134.976 4.44072 136.511C4.22143 137.169 4.11178 137.662 4.11178 137.991C4.11178 139.197 4.11178 140.458 4.11178 141.774C4.22143 143.09 4.27625 144.351 4.27625 145.557C4.60519 147.421 4.76966 149.504 4.76966 151.807C4.87931 154.109 4.66002 155.754 4.11178 156.741C4.11178 152.794 3.78284 148.682 3.12495 144.406C2.57671 140.239 2.0833 136.347 1.64471 132.728V126.478C1.31577 123.737 1.09647 121.325 0.986827 119.242C0.877179 117.049 0.548237 114.527 0 111.676C0 110.799 0 109.867 0 108.88C0.109647 107.893 0.164471 106.961 0.164471 106.084C0.164471 103.123 0.164471 100.437 0.164471 98.0248C0.274119 95.5029 0.548237 92.7069 0.986827 89.6368C1.20612 88.4307 1.1513 87.1697 0.822356 85.854C0.493413 84.4285 0.43859 83.0579 0.657885 81.7422C0.986827 79.3299 1.53506 77.0273 2.3026 74.8344C2.3026 73.9572 2.3026 73.08 2.3026 72.2028C2.3026 71.216 2.24777 70.284 2.13813 69.4068C2.35742 68.3104 2.46707 67.2687 2.46707 66.2819C2.57671 65.295 2.74119 64.2534 2.96048 63.1569C2.85083 62.0604 2.74119 61.0188 2.63154 60.032C2.63154 58.9355 2.63154 57.839 2.63154 56.7425C2.74119 54.3303 2.57671 52.0825 2.13813 49.9992C1.69954 47.9159 1.31577 45.7778 0.986827 43.5849C1.09647 42.7077 1.1513 41.8853 1.1513 41.1178C1.1513 40.3503 1.1513 39.5279 1.1513 38.6507C0.932003 37.006 0.822356 34.8131 0.822356 32.0719C0.822356 29.221 1.09647 26.9184 1.64471 25.1641C1.53506 24.6158 1.48024 24.1224 1.48024 23.6838C1.48024 23.1356 1.42542 22.5874 1.31577 22.0391C1.09647 21.162 1.04165 20.2848 1.1513 19.4076C1.37059 18.4208 1.58989 17.5436 1.80918 16.7761C2.02848 16.1182 2.0833 15.4055 1.97365 14.6379C1.86401 13.8704 1.75436 13.1029 1.64471 12.3353C1.53506 11.4582 1.48024 10.6906 1.48024 10.0327C1.48024 9.37486 1.69954 8.7718 2.13813 8.22356H2.3026C2.3026 9.42968 2.35742 10.4165 2.46707 11.184C2.57671 11.9516 2.74119 12.8287 2.96048 13.8156V22.2036C3.50872 22.9711 3.94731 23.6838 4.27625 24.3417C4.71484 24.9996 5.20825 25.7123 5.75649 26.4799C5.97579 27.1377 6.19508 27.7956 6.41438 28.4535C6.63367 29.1114 6.85296 29.7693 7.07226 30.4272C7.29155 30.9754 7.6205 32.1267 8.05909 33.8811C8.60732 35.5258 9.10074 37.2801 9.53933 39.1441C9.97792 41.0081 10.3069 42.7625 10.5262 44.4072C10.8551 45.9423 10.9099 46.8743 10.6906 47.2032C11.6775 48.9576 12.4998 51.0409 13.1577 53.4531C13.8156 55.7557 14.5283 57.8938 15.2958 59.8675C16.0633 62.0605 16.6664 64.3082 17.105 66.6108C17.5436 68.8038 17.8725 70.8871 18.0918 72.8607C18.3111 74.0668 18.3111 75.4374 18.0918 76.9725C17.9822 78.5076 18.2015 79.7137 18.7497 80.5909L18.9142 80.4264C18.8045 79.8782 18.8594 79.3299 19.0787 78.7817C19.2979 78.2334 19.5172 77.74 19.7365 77.3014C19.5172 75.9857 19.6269 74.3958 20.0655 72.5318C20.5041 70.6678 20.9975 68.7489 21.5457 66.7753C22.2036 64.8016 22.8615 62.8828 23.5194 61.0188C24.1773 59.1548 24.6707 57.6197 24.9996 56.4136C25.5479 54.7689 25.9316 53.0145 26.1509 51.1505C26.3702 49.2865 26.5347 47.4225 26.6443 45.5585C26.8636 43.6945 27.0829 41.8853 27.3022 40.131C27.6312 38.267 28.0697 36.5126 28.618 34.8679C29.2759 33.0039 30.0434 31.085 30.9206 29.1114C31.9074 27.1377 32.7298 25.1641 33.3876 23.1904C33.6069 21.9843 33.7714 20.8878 33.8811 19.901C34.1004 18.8045 34.3196 17.7081 34.5389 16.6116C35.0872 14.4186 35.6354 12.0064 36.1837 9.37485C36.7319 6.63367 37.0608 3.94731 37.1705 1.31577Z" fill="black"/>
<path d="M81.4363 198.188C81.7653 200.6 81.9846 203.341 82.0942 206.411C82.2039 209.481 82.1491 212.223 81.9298 214.635H81.7653C81.6556 211.784 81.3815 208.769 80.9429 205.589C80.614 202.519 80.3399 199.558 80.1206 196.708C80.0109 195.282 79.9561 193.857 79.9561 192.431C80.0658 191.006 79.8465 189.526 79.2982 187.991C78.75 186.455 78.2017 184.701 77.6535 182.727C77.1053 180.754 76.6667 178.999 76.3377 177.464C75.5702 174.285 74.8575 170.886 74.1996 167.267C73.5417 163.758 72.7742 160.579 71.897 157.728C71.897 157.07 71.8422 156.412 71.7325 155.754C71.7325 155.096 71.7325 154.438 71.7325 153.781C70.5264 150.053 69.7041 146.16 69.2655 142.103C68.8269 138.156 68.2787 134.154 67.6208 130.097C67.0725 128.452 66.5243 126.807 65.9761 125.163C65.5375 123.518 65.0441 121.873 64.4958 120.228C64.4958 119.351 64.4958 118.474 64.4958 117.597C64.6055 116.61 64.7151 115.623 64.8248 114.636C64.4958 113.211 64.0024 112.005 63.3445 111.018C62.6866 109.922 62.248 108.496 62.0287 106.742C62.248 106.084 62.3577 105.426 62.3577 104.768C62.4673 104.11 62.577 103.452 62.6866 102.794C62.577 102.027 62.5222 101.314 62.5222 100.656C62.5222 99.8888 62.4673 99.0665 62.3577 98.1893C62.4673 97.8603 62.5222 97.5314 62.5222 97.2025C62.6318 96.7639 62.7415 96.3801 62.8511 96.0512C62.6318 95.174 62.4125 94.2968 62.1932 93.4196C62.0836 92.4328 61.9191 91.5008 61.6998 90.6236C61.3709 88.6499 61.5353 86.8408 62.1932 85.1961C62.8511 83.4417 63.0704 81.9066 62.8511 80.5909C62.3029 79.604 61.7546 78.7269 61.2064 77.9593C61.2064 77.1918 61.1516 76.4791 61.0419 75.8212C61.0419 75.0537 60.9871 74.2861 60.8775 73.5186C60.7678 73.5186 60.713 73.4638 60.713 73.3541C60.6033 73.4638 60.4389 73.5186 60.2196 73.5186C58.6845 74.944 56.985 75.9309 55.121 76.4791C53.3666 76.9177 51.5574 77.4111 49.6934 77.9593C49.4741 77.9593 49.1452 78.0142 48.7066 78.1238C48.3776 78.2334 47.9939 78.3431 47.5553 78.4527C47.1167 78.5624 46.7329 78.672 46.404 78.7817C46.075 78.8913 45.9654 79.001 46.0751 79.1106C45.9654 80.2071 45.8558 81.3036 45.7461 82.4001C45.7461 83.3869 45.6365 84.4285 45.4172 85.525C45.0882 87.389 44.9786 89.1434 45.0882 90.7881C45.1979 92.4328 45.143 94.1872 44.9238 96.0512C44.7045 96.8187 44.4852 97.5862 44.2659 98.3538C44.0466 99.1213 43.8273 99.9436 43.608 100.821C43.4983 102.356 43.4435 103.891 43.4435 105.426C43.4435 106.851 43.4435 108.332 43.4435 109.867C42.8953 113.375 42.7856 117.378 43.1146 121.873C43.4435 126.259 43.608 130.48 43.608 134.537C43.608 137.388 43.3339 140.678 42.7856 144.406C42.2374 148.134 41.5795 151.752 40.812 155.261C40.5927 157.125 40.3734 158.934 40.1541 160.688C40.0444 162.552 39.88 164.416 39.6607 166.28V175.326C39.1124 178.177 38.8931 180.918 39.0028 183.55C39.2221 186.291 39.2221 188.758 39.0028 190.951C39.0028 192.047 39.0028 193.144 39.0028 194.24C38.8931 195.337 38.8383 196.433 38.8383 197.53C38.619 195.666 38.5094 193.473 38.5094 190.951C38.3997 188.539 38.2353 186.181 38.016 183.879C38.1256 182.015 38.2353 180.151 38.3449 178.287C38.3449 176.532 38.3997 174.723 38.5094 172.859C37.9611 169.679 37.7418 166.28 37.8515 162.662C37.8515 159.153 38.016 155.973 38.3449 153.123C38.6738 150.381 38.7835 147.476 38.6738 144.406C38.5642 141.336 38.7835 138.759 39.3317 136.676C39.7703 135.14 39.88 133.112 39.6607 130.59C39.4414 127.959 39.2221 125.82 39.0028 124.176C38.8931 123.518 38.8383 122.915 38.8383 122.367C38.7287 121.709 38.619 121.051 38.5094 120.393C38.8383 118.639 39.2221 116.884 39.6607 115.13C40.0993 113.375 40.483 111.566 40.812 109.702C40.7023 108.277 40.6475 106.851 40.6475 105.426C40.6475 104.001 40.5927 102.52 40.483 100.985C40.9216 99.1213 41.1409 97.2573 41.1409 95.3933C41.2506 93.5293 41.3602 91.7201 41.4699 89.9657C41.6892 88.65 41.6892 87.0601 41.4699 85.1961C41.3602 83.332 41.5795 81.6325 42.1277 80.0975C42.1277 79.8782 42.0729 79.7685 41.9633 79.7685C41.1957 79.8782 40.4282 80.1523 39.6607 80.5909C38.8931 80.9198 38.1256 81.3036 37.3581 81.7422C36.5905 82.1808 35.823 82.5097 35.0555 82.729C34.288 82.9483 33.5204 82.9483 32.7529 82.729V82.5645C32.9722 82.1259 33.1367 81.7422 33.2463 81.4132C33.6849 81.3036 34.3976 81.0295 35.3844 80.5909C36.2616 80.1523 37.1936 79.7137 38.1804 79.2751C39.1673 78.7269 40.0444 78.2334 40.812 77.7949C41.6892 77.2466 42.1826 76.808 42.2922 76.4791C42.4019 75.8212 42.5115 74.8892 42.6212 73.6831C42.8405 72.477 42.9501 71.216 42.9501 69.9002C42.9501 68.5845 42.8953 67.3235 42.7856 66.1174C42.676 64.8016 42.5115 63.8148 42.2922 63.1569C42.1826 62.9376 42.0729 62.7183 41.9633 62.499C41.8536 62.2797 41.744 62.0604 41.6343 61.8412C41.744 61.2929 41.9633 60.7447 42.2922 60.1964C42.6212 59.5386 42.8953 58.8807 43.1146 58.2228L43.608 51.8084C44.1562 49.9444 44.7045 48.4093 45.2527 47.2032C45.9106 45.8875 46.5136 44.4072 47.0619 42.7625C47.5005 41.5564 47.6649 40.1858 47.5553 38.6507C47.5553 37.1157 47.7746 35.6354 48.2132 34.21C48.4325 33.6618 48.5969 33.2232 48.7066 32.8942C48.8162 32.4556 48.9807 31.9622 49.2 31.414C49.4193 30.5368 49.3645 29.7693 49.0355 29.1114C48.8162 28.4535 48.8162 27.8504 49.0355 27.3022C49.3645 24.7803 49.9675 22.2036 50.8447 19.5721C51.8315 16.8309 52.7087 14.1445 53.4763 11.513C53.8052 10.0876 53.9148 8.66215 53.8052 7.23674C53.6955 5.70167 54.0245 4.27625 54.792 2.96048C54.792 3.17977 54.792 3.45389 54.792 3.78284C54.9017 4.00214 54.9565 4.22143 54.9565 4.44072H55.121C55.3403 3.67319 55.4499 2.96048 55.4499 2.3026C55.5596 1.53507 55.724 0.767535 55.9433 0C56.3819 0.438591 56.5464 1.26095 56.4367 2.46706C56.4367 3.67319 56.2723 5.04379 55.9433 6.57885C55.724 8.00427 55.5047 9.42968 55.2854 10.8551C55.0661 12.2805 55.0661 13.3222 55.2854 13.9801C55.5047 14.5283 55.8885 15.1313 56.4367 15.7892C56.656 16.9954 56.8205 18.1466 56.9301 19.2431C57.0398 20.2299 57.1494 21.3264 57.2591 22.5326C57.4784 22.7518 57.6977 22.9711 57.917 23.1904C58.1363 23.4097 58.3556 23.629 58.5749 23.8483C58.7942 24.8351 59.0134 25.822 59.2327 26.8088C59.5617 27.686 59.8358 28.618 60.0551 29.6048C60.2744 30.2627 60.5485 31.085 60.8775 32.0719C61.316 32.9491 61.645 33.8262 61.8643 34.7034C61.8643 35.9095 61.8095 37.1705 61.6998 38.4863C61.6998 39.6924 61.645 40.9533 61.5353 42.2691C61.9739 44.5717 62.3577 46.8743 62.6866 49.1769C63.0156 51.3698 63.509 53.3983 64.1669 55.2623C64.7151 56.7974 64.9892 58.4969 64.9892 60.3609C65.0989 62.1153 65.5923 63.5407 66.4695 64.6372C68.0045 63.8696 69.7041 63.0473 71.5681 62.1701C73.5417 61.1833 75.5154 60.5802 77.489 60.3609V60.5254C77.3794 60.635 77.2697 60.6899 77.1601 60.6899C75.2961 62.0056 73.6514 63.3214 72.226 64.6372C70.8005 65.9529 69.2655 67.3235 67.6208 68.7489C67.7304 70.5033 67.7852 72.2577 67.7852 74.012C67.8949 75.7664 68.0045 77.5756 68.1142 79.4396C68.0045 79.7685 67.8401 80.1523 67.6208 80.5909C67.5111 80.9198 67.4563 81.4132 67.4563 82.0711C67.4563 83.4965 67.5111 84.593 67.6208 85.3605C67.8401 86.0184 67.8949 86.7859 67.7852 87.6631C67.8949 88.4307 67.9497 89.1982 67.9497 89.9657C67.9497 90.7333 68.0045 91.5556 68.1142 92.4328C67.5659 93.6389 67.1822 95.3933 66.9629 97.6959C66.8532 99.8888 66.8532 101.808 66.9629 103.452C67.1822 108.277 67.7852 112.882 68.7721 117.268C69.8685 121.544 70.8005 126.04 71.5681 130.755C71.4584 131.193 71.4036 131.632 71.4036 132.07C71.4036 132.509 71.3488 132.948 71.2391 133.386C71.5681 135.579 71.7325 137.882 71.7325 140.294C71.7325 142.816 72.0615 145.338 72.7194 147.86C73.3773 151.697 74.0351 155.425 74.693 159.044C75.4606 162.772 76.2281 166.554 76.9956 170.392C77.6535 173.024 78.421 175.874 79.2982 178.945C80.1754 182.015 80.8881 184.975 81.4363 187.826V198.188ZM46.5685 74.6699C47.336 74.4506 48.3776 74.1765 49.6934 73.8475C51.1188 73.409 52.4894 72.9155 53.8052 72.3673C55.2306 71.8191 56.4367 71.1612 57.4236 70.3937C58.52 69.6261 59.0683 68.7489 59.0683 67.7621C58.9586 66.6656 58.849 65.624 58.7393 64.6372C58.7393 63.6503 58.6845 62.6087 58.5749 61.5122C58.3556 60.8543 58.0266 60.0868 57.588 59.2096C57.2591 58.3324 56.985 57.4553 56.7657 56.5781V52.9597L54.2986 49.0124L54.792 47.5322C55.2306 45.9971 55.121 44.6813 54.4631 43.5849C53.8052 42.4884 53.0377 41.666 52.1605 41.1178C52.1605 42.3239 51.8864 43.3107 51.3381 44.0783C50.8995 44.8458 50.5158 45.723 50.1868 46.7098C49.5289 48.4642 48.9807 50.1637 48.5421 51.8084C48.1035 53.3435 47.6649 54.9334 47.2263 56.5781V63.3214C46.8974 64.8565 46.7329 66.6656 46.7329 68.7489C46.8426 70.7226 46.7878 72.6962 46.5685 74.6699Z" fill="black"/>
<path d="M117.919 57.4004C118.468 60.3609 118.577 63.2117 118.248 65.9529C117.919 68.5845 117.316 71.1612 116.439 73.6831C115.562 76.205 114.52 78.672 113.314 81.0843C112.218 83.3869 111.176 85.6346 110.189 87.8276C109.312 89.8013 108.654 91.6653 108.216 93.4196C107.777 95.174 106.955 96.9283 105.749 98.6827C105.2 99.2309 104.707 99.7792 104.268 100.327C103.83 100.766 103.336 101.259 102.788 101.808C102.13 102.685 101.527 103.726 100.979 104.933C100.431 106.139 99.8824 107.345 99.3341 108.551C98.7859 109.647 98.128 110.744 97.3605 111.84C96.7026 112.827 95.8803 113.54 94.8934 113.979C94.4548 114.198 93.5228 114.417 92.0974 114.636L89.7948 114.965C85.4089 116.391 81.352 116.446 77.624 115.13C73.8959 113.704 70.9355 111.128 68.7425 107.4C68.5232 107.071 68.1395 106.413 67.5912 105.426C66.9333 104.33 66.3303 103.233 65.782 102.137C65.1241 100.93 64.6856 99.7792 64.4663 98.6827C64.1373 97.4766 64.247 96.5446 64.7952 95.8867C64.7952 97.2025 65.2338 98.7923 66.111 100.656C66.9882 102.52 68.0846 104.33 69.4004 106.084C70.7162 107.729 72.0868 109.209 73.5122 110.525C74.9376 111.731 76.1437 112.389 77.1305 112.498C77.7884 112.608 78.6656 112.608 79.7621 112.498C80.8586 112.389 81.955 112.224 83.0515 112.005C84.148 111.786 85.08 111.566 85.8475 111.347C86.615 111.018 86.944 110.689 86.8343 110.36C86.7247 108.496 86.615 106.632 86.5054 104.768C86.3957 102.904 86.2861 101.04 86.1765 99.1761C86.0668 96.9832 86.1765 94.7902 86.5054 92.5973C86.944 90.4043 87.3278 88.321 87.6567 86.3474C87.876 85.4702 87.8212 84.7026 87.4922 84.0448C87.1633 83.2772 86.944 82.5097 86.8343 81.7422C86.944 81.0843 87.0536 80.4264 87.1633 79.7685C87.2729 79.1106 87.3826 78.3979 87.4922 77.6304C87.0536 75.4374 86.7247 73.1897 86.5054 70.8871C86.3957 68.5845 86.1765 66.3915 85.8475 64.3082C85.8475 63.76 85.8475 63.1569 85.8475 62.499C85.9572 61.8412 86.012 61.2381 86.012 60.6899C85.4638 57.5101 85.2993 54.0562 85.5186 50.3282C85.8475 46.4905 85.683 42.8173 85.0252 39.3086C84.0383 39.199 83.2708 38.8152 82.7226 38.1573C82.1743 37.3898 81.4616 37.2253 80.5844 37.6639C79.7073 38.1025 78.8849 38.9797 78.1174 40.2954C77.4595 41.6112 76.8564 43.0914 76.3082 44.7362C75.8696 46.3809 75.5955 48.0256 75.4858 49.6703C75.3762 51.315 75.5407 52.6856 75.9792 53.7821C75.76 53.7821 75.5955 53.7272 75.4858 53.6176C75.2665 51.315 75.1569 49.0672 75.1569 46.8743C75.1569 44.5717 75.3762 42.4884 75.8148 40.6244C76.363 38.6507 77.1854 36.9512 78.2818 35.5258C79.3783 34.1004 80.9134 33.0039 82.887 32.2364C84.2028 32.0171 85.5186 31.8526 86.8343 31.7429C88.1501 31.5236 89.4659 31.3043 90.7816 31.085C91.8781 31.1947 92.9198 31.3592 93.9066 31.5785C94.8934 31.7978 95.9351 32.0171 97.0316 32.2364C98.0184 32.4556 98.8956 32.5105 99.6631 32.4008C100.54 32.1815 101.472 32.2363 102.459 32.5653C103.227 32.7846 104.268 33.2232 105.584 33.8811C106.9 34.4293 108.216 35.0872 109.531 35.8547C110.957 36.5126 112.218 37.2253 113.314 37.9928C114.411 38.7604 115.178 39.4731 115.617 40.131C115.836 40.6792 115.891 41.3371 115.781 42.1046C115.781 42.8721 115.836 43.4752 115.946 43.9138C116.275 45.2296 116.549 46.5453 116.768 47.8611C117.097 49.0672 117.426 50.2734 117.755 51.4795C117.755 52.4663 117.755 53.4531 117.755 54.44C117.865 55.4268 117.919 56.4136 117.919 57.4004ZM110.518 68.7489C110.737 68.42 111.012 68.0911 111.341 67.7621C111.669 67.4332 111.944 67.1591 112.163 66.9398C112.163 65.624 112.108 64.3082 111.998 62.9925C111.998 61.6767 111.998 60.3609 111.998 59.0451C111.779 57.7294 111.341 56.3588 110.683 54.9334C110.025 53.3983 109.586 52.0825 109.367 50.9861C110.244 49.451 110.683 47.6966 110.683 45.723C110.683 43.6397 109.751 42.0498 107.887 40.9533C107.229 40.8437 106.681 40.8985 106.242 41.1178C105.803 41.3371 105.365 41.5564 104.926 41.7757C104.597 41.995 104.159 42.2143 103.61 42.4336C103.172 42.6529 102.624 42.6529 101.966 42.4336C100.431 41.995 98.8956 41.2823 97.3605 40.2954C95.8254 39.3086 94.0162 38.7604 91.9329 38.6507C91.3847 38.9797 90.8365 39.1441 90.2882 39.1441C89.74 39.0345 89.3014 39.0893 88.9725 39.3086C88.8628 41.5016 88.9176 43.859 89.1369 46.3809C89.3562 48.9028 89.6852 51.2054 90.1238 53.2887C90.5624 55.4816 90.672 57.4004 90.4527 59.0451C90.3431 60.6899 90.4527 62.2249 90.7816 63.6503V69.0779C91.0009 71.2708 91.2202 73.3541 91.4395 75.3278C91.7685 77.1918 92.1522 79.1106 92.5908 81.0843C92.5908 81.5229 92.4812 81.797 92.2619 81.9066C92.1522 82.0163 92.0974 82.1808 92.0974 82.4001C91.8781 83.0579 91.8781 83.7158 92.0974 84.3737C92.3167 85.0316 92.4812 85.5798 92.5908 86.0184C92.8101 86.8956 92.7553 87.4987 92.4264 87.8276C92.0974 88.1565 91.8781 88.5951 91.7685 89.1434V92.7617C91.5492 92.981 91.3299 93.2551 91.1106 93.5841C91.0009 93.913 90.8365 94.242 90.6172 94.5709C90.1786 96.6542 89.9045 98.902 89.7948 101.314C89.7948 103.617 90.0141 105.7 90.4527 107.564C90.672 108.112 90.7268 108.661 90.6172 109.209C90.5075 109.647 90.5624 110.031 90.7816 110.36C91.9878 110.031 93.0294 109.428 93.9066 108.551C94.7838 107.564 95.5513 106.522 96.2092 105.426C96.8671 104.33 97.4701 103.233 98.0184 102.137C98.5666 100.93 99.1697 99.834 99.8276 98.8472C100.595 97.7507 101.363 96.709 102.13 95.7222C103.007 94.6257 103.72 93.4196 104.268 92.1039L105.255 87.6631C106.023 86.1281 106.845 84.5382 107.722 82.8935C108.709 81.2488 109.477 79.5492 110.025 77.7949C110.134 76.2598 110.189 74.7796 110.189 73.3541C110.299 71.8191 110.409 70.284 110.518 68.7489Z" fill="black"/>
<path d="M115.501 21.0523C116.269 21.6005 117.42 22.3133 118.955 23.1904C120.38 24.0676 121.477 24.6707 122.244 24.9996C123.78 25.1093 125.315 25.2189 126.85 25.3286C128.385 25.3286 129.92 25.3834 131.455 25.493C133.977 26.0413 136.882 26.5895 140.172 27.1377C143.571 27.5763 146.641 27.686 149.382 27.4667C151.466 27.2474 153.713 27.357 156.126 27.7956C158.538 28.1246 160.676 27.7956 162.54 26.8088C162.65 26.9184 162.704 27.0281 162.704 27.1377C162.814 27.686 162.759 28.2342 162.54 28.7825C162.321 29.221 162.321 29.7145 162.54 30.2627C162.759 30.7013 162.924 31.0851 163.033 31.414C163.253 31.7429 163.472 32.1267 163.691 32.5653C163.143 33.4425 162.924 34.2648 163.033 35.0324C163.143 35.6902 162.978 36.2385 162.54 36.6771C162.869 37.1157 163.143 37.5542 163.362 37.9928C163.691 38.3218 163.965 38.7055 164.185 39.1441C164.952 40.8985 165.281 42.8173 165.171 44.9006C165.062 46.8743 165.117 48.6835 165.336 50.3282C165.117 50.2185 165.007 50.1637 165.007 50.1637C164.678 48.4093 164.294 46.4357 163.856 44.2427C163.417 41.9401 162.759 40.131 161.882 38.8152C161.114 38.267 160.347 37.7187 159.579 37.1705C158.922 36.5126 158.264 35.9095 157.606 35.3613C157.167 34.7034 156.893 34.1552 156.783 33.7166C156.783 33.278 156.454 32.8942 155.797 32.5653C155.358 32.4556 154.919 32.5105 154.481 32.7298C154.152 32.9491 153.768 33.1135 153.33 33.2232C152.781 33.1135 152.233 33.0587 151.685 33.0587C151.246 32.9491 150.753 32.8394 150.205 32.7298C148.998 32.5105 147.683 32.5653 146.257 32.8942C144.941 33.2232 143.845 33.4973 142.968 33.7166C142.31 33.6069 141.652 33.5521 140.994 33.5521C140.336 33.4425 139.624 33.3328 138.856 33.2232C137.869 33.5521 137.211 33.9359 136.882 34.3745C136.663 34.8131 136.499 35.3065 136.389 35.8547C136.389 36.4029 136.389 37.0608 136.389 37.8284C136.389 38.4862 136.17 39.199 135.731 39.9665C135.512 40.2954 135.238 40.6244 134.909 40.9533C134.58 41.1726 134.47 41.6112 134.58 42.2691C134.689 42.8173 134.909 43.3656 135.238 43.9138C135.676 44.3524 136.06 44.791 136.389 45.2296C137.924 45.6682 139.898 45.8875 142.31 45.8875C144.832 45.8875 146.915 45.8326 148.56 45.723C149.876 45.6133 151.191 45.394 152.507 45.0651C153.823 44.7362 155.248 44.8458 156.783 45.394C158.647 46.0519 160.182 47.258 161.389 49.0124C162.704 50.6571 163.856 52.247 164.842 53.7821C164.733 53.8917 164.678 53.9465 164.678 53.9465C163.582 53.179 162.595 52.1374 161.718 50.8216C160.84 49.5058 159.689 48.6286 158.264 48.1901C156.071 47.7515 153.658 47.8611 151.027 48.519C148.505 49.1769 146.202 49.5606 144.119 49.6703C143.571 49.6703 142.803 49.6703 141.817 49.6703C140.83 49.6703 139.788 49.6703 138.692 49.6703C137.705 49.6703 136.773 49.7251 135.896 49.8348C135.018 49.8348 134.415 49.9444 134.086 50.1637C133.757 51.1505 133.703 52.0277 133.922 52.7952C134.251 53.5628 134.525 54.2755 134.744 54.9334L134.251 56.907C134.47 57.236 134.58 57.6197 134.58 58.0583C134.689 58.3873 134.799 58.7162 134.909 59.0451C134.909 59.1548 134.909 59.5934 134.909 60.3609C134.909 61.0188 134.854 61.7863 134.744 62.6635C134.744 63.431 134.689 64.2534 134.58 65.1306C134.47 65.8981 134.415 66.3915 134.415 66.6108C134.306 68.0362 134.196 69.5713 134.086 71.216C133.977 72.7511 133.757 74.1765 133.429 75.4923C133.648 76.1501 133.757 76.808 133.757 77.4659C133.867 78.0142 133.977 78.6172 134.086 79.2751C133.209 83.4417 132.551 88.0469 132.113 93.0907C131.674 98.0248 132.222 102.959 133.757 107.893C135.841 108.112 137.924 108.222 140.007 108.222C142.2 108.222 144.284 108.496 146.257 109.044C147.463 109.264 148.669 109.209 149.876 108.88C151.082 108.441 152.452 108.441 153.987 108.88C155.851 109.428 157.441 110.36 158.757 111.676C160.182 112.882 161.334 114.362 162.211 116.117C163.198 117.871 163.965 119.735 164.514 121.709C165.171 123.682 165.665 125.601 165.994 127.465C165.884 127.465 165.72 127.356 165.5 127.136C165.171 126.149 164.897 125.108 164.678 124.011C164.568 122.915 164.294 121.873 163.856 120.886C162.321 117.597 159.799 115.349 156.29 114.143C152.781 112.827 149.218 112.443 145.599 112.992C144.941 113.101 144.229 113.101 143.461 112.992C142.694 112.772 141.926 112.608 141.159 112.498C140.391 112.389 139.624 112.334 138.856 112.334C138.089 112.224 137.431 112.334 136.882 112.663C136.005 112.443 135.238 112.389 134.58 112.498C133.922 112.498 133.209 112.389 132.442 112.169C131.893 111.95 131.29 111.731 130.632 111.511C130.084 111.292 129.536 111.073 128.988 110.854C128.659 111.182 128.33 111.511 128.001 111.84C127.672 112.06 127.288 112.279 126.85 112.498C126.85 112.389 126.795 112.334 126.685 112.334C126.904 110.689 127.288 109.593 127.836 109.044C128.385 108.386 128.933 107.509 129.481 106.413C128.604 103.562 128.275 100.93 128.494 98.5182C128.823 95.9963 128.933 93.31 128.823 90.4591C128.714 90.0206 128.549 89.4175 128.33 88.65C128.22 87.7728 128.275 87.1149 128.494 86.6763C128.604 86.457 128.714 86.2377 128.823 86.0184C129.043 85.6895 129.207 85.3605 129.317 85.0316C129.207 84.4833 129.043 83.7706 128.823 82.8935C128.714 81.3584 128.714 79.604 128.823 77.6304C128.933 75.5471 129.097 73.7927 129.317 72.3673C129.317 71.8191 129.262 71.3257 129.152 70.8871C129.152 70.4485 129.152 69.9551 129.152 69.4068C129.591 68.0911 129.865 66.5012 129.975 64.6372C130.194 62.7732 130.249 60.9092 130.139 59.0451C130.029 57.0715 129.81 55.2075 129.481 53.4531C129.262 51.5891 128.988 49.9444 128.659 48.519L120.271 47.5322V46.7098C120.709 46.6002 121.093 46.4357 121.422 46.2164C121.751 45.9971 122.025 45.8326 122.244 45.723C122.902 45.5037 123.451 45.4489 123.889 45.5585C124.437 45.5585 124.931 45.6133 125.369 45.723C125.808 45.8326 126.247 45.8875 126.685 45.8875C127.124 45.8875 127.617 45.723 128.165 45.394H128.494C128.494 43.53 128.33 41.6112 128.001 39.6375C127.782 37.6639 127.727 35.8547 127.836 34.21C127.946 33.0039 128.165 32.1267 128.494 31.5785C128.933 30.9206 129.043 30.0434 128.823 28.9469C128.056 28.7276 126.904 28.3439 125.369 27.7956C123.834 27.1377 122.299 26.425 120.764 25.6575C119.339 24.89 118.078 24.1224 116.981 23.3549C115.885 22.4777 115.391 21.7102 115.501 21.0523Z" fill="black"/>
<path d="M208.79 97.2025C209.009 98.0796 209.173 99.0116 209.283 99.9985C209.502 100.876 209.722 101.753 209.941 102.63C209.722 103.288 209.283 103.836 208.625 104.275C207.967 104.713 207.529 105.316 207.309 106.084C207.09 106.742 206.816 107.564 206.487 108.551C206.158 109.538 205.774 110.525 205.336 111.511C205.007 112.498 204.623 113.43 204.184 114.307C203.856 115.075 203.472 115.623 203.033 115.952C202.704 116.171 202.211 116.5 201.553 116.939C200.895 117.378 200.182 117.871 199.415 118.419C198.647 118.858 197.88 119.296 197.112 119.735C196.345 120.064 195.742 120.338 195.303 120.557C193.987 120.777 192.891 120.996 192.014 121.215C191.465 121.435 190.972 121.818 190.533 122.367C190.095 122.805 189.492 123.079 188.724 123.189C187.737 123.408 186.805 123.134 185.928 122.367C185.051 121.599 184.174 121.106 183.297 120.886C182.639 120.777 181.981 120.722 181.323 120.722C180.775 120.722 180.172 120.722 179.514 120.722C178.637 120.503 177.54 119.954 176.224 119.077C174.909 118.2 173.867 117.432 173.099 116.775C172.222 115.897 171.564 115.075 171.126 114.307C170.687 113.43 170.303 112.553 169.975 111.676C169.755 110.799 169.481 109.867 169.152 108.88C168.933 107.893 168.604 106.797 168.165 105.59C167.946 104.933 167.617 103.781 167.178 102.137C166.74 100.382 166.356 98.5731 166.027 96.709C165.589 94.845 165.314 93.0907 165.205 91.446C164.986 89.6916 164.986 88.4855 165.205 87.8276V88.1565C165.424 89.582 165.698 91.0074 166.027 92.4328C166.356 93.8582 166.63 95.3384 166.85 96.8735C167.398 99.834 168.275 102.849 169.481 105.919C170.687 108.99 172.387 111.182 174.58 112.498C173.922 108.661 173.648 104.823 173.757 100.985C173.867 97.038 173.319 93.3648 172.113 89.9657C172.442 89.3078 172.716 88.4307 172.935 87.3342C173.264 86.1281 173.538 84.8671 173.757 83.5513C173.977 82.2356 174.141 80.9746 174.251 79.7685C174.36 78.5624 174.415 77.5756 174.415 76.808C174.196 75.8212 174.031 74.8344 173.922 73.8475C173.812 72.7511 173.648 71.6546 173.428 70.5581C173.209 70.3388 172.99 70.1195 172.771 69.9002C172.661 69.5713 172.496 69.2424 172.277 68.9134C172.277 68.0362 172.277 67.1042 172.277 66.1174C172.387 65.1306 172.496 64.1438 172.606 63.1569C171.729 57.7842 171.729 52.9597 172.606 48.6835C172.606 47.8063 172.551 46.9839 172.442 46.2164C172.442 45.3392 172.387 44.462 172.277 43.5849C172.058 41.9401 171.893 40.4599 171.784 39.1441C171.784 37.8284 171.729 36.2385 171.619 34.3745C170.961 34.2648 170.523 34.1004 170.303 33.8811C170.084 33.6618 169.755 33.4425 169.317 33.2232C168.22 33.5521 167.179 33.8262 166.192 34.0455C165.095 34.2648 164.054 34.6486 163.067 35.1968C162.299 35.5258 161.641 36.1288 161.093 37.006C160.435 37.7735 159.722 38.4314 158.955 38.9797C159.174 38.5411 159.284 38.3218 159.284 38.3218C159.613 37.1157 160.326 36.1837 161.422 35.5258C162.409 34.7582 163.341 33.9359 164.218 33.0587C164.547 32.7298 164.821 32.2912 165.04 31.7429C165.26 31.1947 165.643 30.8109 166.192 30.5916C168.494 29.3855 170.961 28.5632 173.593 28.1246C176.224 27.5763 178.856 26.9733 181.487 26.3154C181.926 26.0961 182.529 26.0961 183.297 26.3154C184.174 26.5347 184.941 26.4799 185.599 26.1509C187.134 26.1509 188.066 26.425 188.395 26.9733C188.834 27.4119 189.492 27.8505 190.369 28.289C192.452 29.1662 194.042 30.0982 195.139 31.085C196.235 32.0719 196.948 33.7166 197.277 36.0192C197.167 36.6771 197.112 37.335 197.112 37.9928C197.112 38.5411 197.112 39.0893 197.112 39.6375C197.222 40.1858 197.496 40.6244 197.935 40.9533C198.373 41.2823 198.702 41.7209 198.921 42.2691C198.702 43.4752 198.538 44.6813 198.428 45.8875C198.318 47.0936 198.154 48.2997 197.935 49.5058C197.715 50.2733 197.277 50.9312 196.619 51.4795C195.961 51.9181 195.248 52.3567 194.481 52.7952C193.823 53.2338 193.22 53.7272 192.672 54.2755C192.123 54.7141 191.794 55.372 191.685 56.2491C192.123 56.2491 193 56.6329 194.316 57.4004C195.742 58.0583 197.222 58.8259 198.757 59.703C200.292 60.5802 201.717 61.4026 203.033 62.1701C204.349 62.9376 205.116 63.4859 205.336 63.8148C205.994 64.5823 206.377 65.4595 206.487 66.4463C206.597 67.3235 206.597 68.2555 206.487 69.2424C206.377 70.2292 206.323 71.2708 206.323 72.3673C206.323 73.3541 206.487 74.3958 206.816 75.4923C208.022 78.672 208.68 82.2356 208.79 86.1829C209.009 90.1302 209.009 93.8034 208.79 97.2025ZM176.718 48.8479C177.047 50.0541 176.992 51.2054 176.553 52.3018C176.224 53.2887 176.334 54.3851 176.882 55.5913C177.759 55.4816 178.527 55.5913 179.185 55.9202C179.843 56.1395 180.665 56.1395 181.652 55.9202C182.2 55.4816 182.748 55.0978 183.297 54.7689C183.955 54.44 184.558 54.111 185.106 53.7821C185.654 53.5628 186.147 53.5079 186.586 53.6176C187.025 53.6176 187.518 53.3983 188.066 52.9597C188.834 52.4115 189.382 51.4795 189.711 50.1637C190.15 48.8479 190.369 47.4225 190.369 45.8875C190.479 44.3524 190.369 42.8722 190.04 41.4467C189.821 40.0213 189.437 38.9248 188.889 38.1573C187.683 36.6222 185.819 35.7999 183.297 35.6902C180.775 35.5806 178.417 35.4161 176.224 35.1968C175.895 35.4161 175.676 35.5258 175.567 35.5258C175.567 35.5258 175.347 35.5258 174.909 35.5258C175.128 37.7187 175.402 39.9665 175.731 42.2691C176.06 44.462 176.389 46.655 176.718 48.8479ZM204.349 93.4196C204.568 92.3231 204.678 91.0074 204.678 89.4723C204.678 87.8276 204.568 86.2377 204.349 84.7026C204.13 83.0579 203.856 81.5229 203.527 80.0975C203.307 78.5624 203.033 77.3563 202.704 76.4791C202.485 75.6019 202.43 74.341 202.54 72.6963C202.649 71.0515 202.54 69.7906 202.211 68.9134C201.553 67.0494 200.402 65.5692 198.757 64.4727C197.222 63.2666 195.358 62.3346 193.165 61.6767C191.082 61.0188 188.834 60.5802 186.422 60.3609C184.119 60.032 181.816 59.8675 179.514 59.8675C179.185 60.0868 178.801 60.1964 178.363 60.1964C178.034 60.1964 177.595 60.1964 177.047 60.1964V61.6767L177.54 67.1042C177.54 67.3235 177.431 67.6525 177.211 68.0911C176.992 68.42 176.937 68.8038 177.047 69.2424C177.266 69.7906 177.54 70.5033 177.869 71.3805C178.198 72.2577 178.472 72.9704 178.691 73.5186C179.24 75.7116 179.24 78.3431 178.691 81.4132C178.253 84.3737 177.814 86.7859 177.376 88.65C177.156 89.8561 177.047 91.1718 177.047 92.5973C177.156 93.913 177.321 95.1192 177.54 96.2156C177.54 97.7507 177.54 99.3406 177.54 100.985C177.54 102.52 177.485 104.055 177.376 105.59L178.363 106.577C178.253 106.797 178.198 107.18 178.198 107.729C178.198 108.167 178.253 108.606 178.363 109.044C178.582 109.593 178.801 110.141 179.02 110.689C179.24 111.128 179.459 111.621 179.678 112.169C180.117 112.498 180.994 112.937 182.31 113.485C183.626 113.924 185.051 114.307 186.586 114.636C188.231 114.965 189.766 115.185 191.191 115.294C192.726 115.404 193.823 115.294 194.481 114.965C195.906 114.198 196.893 113.266 197.441 112.169C197.989 110.963 198.702 109.757 199.579 108.551C199.031 107.235 198.921 105.974 199.25 104.768C199.579 103.562 200.073 102.356 200.731 101.15C201.388 99.9436 202.046 98.7375 202.704 97.5314C203.472 96.2156 204.02 94.845 204.349 93.4196Z" fill="black"/>
<path d="M209.875 11.6774C210.753 12.7739 211.356 14.1445 211.685 15.7892C212.014 17.3243 212.452 18.8594 213 20.3944C213.549 21.7102 214.097 23.026 214.645 24.3417C215.303 25.6575 215.906 26.9733 216.454 28.289C216.783 29.7145 217.112 31.1399 217.441 32.5653C217.77 33.9907 218.154 35.4709 218.592 37.006C219.47 39.7472 220.292 42.3239 221.059 44.7362C221.937 47.1484 222.978 49.6155 224.184 52.1374C224.842 53.6724 225.5 55.0978 226.158 56.4136C226.926 57.6197 227.584 58.9903 228.132 60.5254C228.57 61.6219 228.735 62.6087 228.625 63.4859C228.516 64.363 228.735 65.3499 229.283 66.4463C229.612 67.1042 230.051 67.5976 230.599 67.9266C231.257 68.1459 231.75 68.5845 232.079 69.2424C232.408 70.0099 232.572 70.6678 232.572 71.216C232.682 71.7642 232.792 72.2577 232.901 72.6963C233.121 73.1348 233.395 73.5734 233.724 74.012C234.053 74.341 234.656 74.6699 235.533 74.9988C235.643 74.9988 235.697 74.9988 235.697 74.9988C235.697 74.8892 235.752 74.8344 235.862 74.8344C236.41 72.7511 236.958 70.5033 237.507 68.0911C238.164 65.5692 238.877 63.2117 239.645 61.0188C239.754 60.4706 239.809 60.032 239.809 59.703C239.809 59.2644 239.809 58.771 239.809 58.2228C240.029 57.5649 240.193 56.9618 240.303 56.4136C240.412 55.7557 240.577 55.0978 240.796 54.44C240.796 53.5628 240.796 52.7952 240.796 52.1374C240.906 51.3698 240.961 50.6023 240.961 49.8348C241.289 48.6286 241.618 47.4773 241.947 46.3809C242.386 45.2844 242.77 44.1331 243.099 42.927C243.099 42.3787 243.099 41.8853 243.099 41.4467C243.208 40.8985 243.263 40.3503 243.263 39.802C243.921 37.6091 244.579 35.4161 245.237 33.2232C246.004 31.0302 246.662 29.0018 247.21 27.1377C247.43 25.9316 247.649 24.7803 247.868 23.6838C248.197 22.4777 248.526 21.2716 248.855 20.0655C248.855 20.1751 248.91 20.2848 249.02 20.3944C248.691 21.2716 248.526 22.0391 248.526 22.697C248.526 23.3549 248.526 24.0128 248.526 24.6707L246.553 35.5258C246.333 36.5126 246.224 37.8284 246.224 39.4731C246.333 41.1178 246.169 42.4336 245.73 43.4204C245.292 44.6265 244.853 45.9423 244.414 47.3677C244.085 48.7931 243.811 50.1637 243.592 51.4795C243.263 53.0145 243.099 54.7141 243.099 56.5781C243.099 58.4421 242.934 60.1416 242.605 61.6767C241.399 67.2687 240.248 72.6414 239.151 77.7949C238.164 82.8386 237.123 88.1565 236.026 93.7486C236.026 94.4064 236.026 95.0643 236.026 95.7222C236.136 96.2704 236.191 96.8187 236.191 97.3669C236.081 97.8055 236.026 98.2441 236.026 98.6827C236.026 99.0116 235.972 99.3954 235.862 99.834C236.081 100.711 236.191 101.588 236.191 102.466C236.3 103.343 236.41 104.33 236.52 105.426C236.739 106.084 236.849 106.742 236.849 107.4C236.52 108.715 236.246 110.36 236.026 112.334C235.917 114.198 235.862 116.226 235.862 118.419C235.862 120.503 235.917 122.531 236.026 124.505C236.246 126.478 236.52 128.178 236.849 129.603C237.068 130.809 236.958 132.125 236.52 133.551C236.191 134.866 235.917 136.127 235.697 137.333C235.259 138.978 235.149 140.349 235.368 141.445C235.588 142.542 235.478 143.912 235.04 145.557C234.711 146.763 234.656 147.86 234.875 148.846C235.204 149.943 235.259 151.204 235.04 152.629C234.93 153.177 234.985 153.835 235.204 154.603C235.423 155.37 235.423 156.248 235.204 157.234C234.875 159.098 234.711 161.017 234.711 162.991C234.711 165.074 234.875 166.938 235.204 168.583C235.752 170.557 236.136 172.64 236.355 174.833C236.684 177.135 236.629 179.054 236.191 180.589C235.862 181.795 235.917 183.166 236.355 184.701C236.794 186.236 236.684 187.333 236.026 187.991C236.136 184.92 236.081 181.905 235.862 178.945C235.752 175.984 235.533 173.298 235.204 170.886C234.985 170.118 234.711 169.296 234.382 168.418C234.162 167.651 233.943 166.829 233.724 165.951C233.724 165.294 233.669 164.581 233.559 163.813C233.559 163.155 233.559 162.498 233.559 161.84C233.34 161.182 233.121 160.469 232.901 159.701C232.682 159.044 232.682 158.276 232.901 157.399C232.901 157.18 232.956 156.302 233.066 154.767C233.285 153.342 233.34 152.41 233.23 151.971C233.011 151.094 232.792 149.833 232.572 148.189C232.353 146.544 232.353 145.173 232.572 144.077C233.121 139.8 233.45 135.14 233.559 130.097C233.669 124.943 233.121 119.899 231.915 114.965C231.915 113.54 231.915 112.169 231.915 110.854C232.024 109.538 232.079 108.222 232.079 106.906C231.86 105.371 231.476 103.891 230.928 102.466C230.489 100.93 230.16 99.505 229.941 98.1893C229.722 97.3121 229.722 96.4897 229.941 95.7222C230.16 94.845 230.325 94.1323 230.434 93.5841C230.763 92.378 230.818 90.7333 230.599 88.65C230.489 86.457 230.27 84.7575 229.941 83.5513C229.064 80.2619 228.022 77.0273 226.816 73.8475C225.72 70.6678 224.568 67.4332 223.362 64.1437C223.143 63.7052 222.924 63.3214 222.704 62.9925C222.595 62.5539 222.43 62.1153 222.211 61.6767C221.772 59.5934 221.224 57.4553 220.566 55.2623C220.018 52.9597 219.415 50.8764 218.757 49.0124L217.77 43.5849C217.003 40.9533 216.345 38.4314 215.796 36.0192C215.358 33.4973 214.7 30.8658 213.823 28.1246C213.713 27.4667 213.603 26.8088 213.494 26.1509C213.384 25.3834 213.275 24.6707 213.165 24.0128C212.617 21.9295 212.014 19.901 211.356 17.9274C210.698 15.8441 210.204 13.7608 209.875 11.6774Z" fill="black"/>
<path d="M294.651 84.2092C294.432 84.7575 294.158 85.3605 293.829 86.0184C293.5 86.5666 293.226 87.1697 293.007 87.8276C292.678 89.253 292.623 90.6784 292.842 92.1039C293.061 93.4196 292.897 94.6806 292.349 95.8867C292.129 96.2156 291.91 96.5446 291.691 96.8735C291.581 97.2025 291.417 97.4766 291.197 97.6959C291.088 98.2441 291.033 99.0116 291.033 99.9985C290.814 100.547 290.485 101.314 290.046 102.301C289.608 103.178 289.279 103.946 289.059 104.604C289.498 105.042 289.882 105.426 290.211 105.755C290.54 106.084 290.923 106.413 291.362 106.742C291.143 108.606 291.307 109.976 291.855 110.854C292.404 111.731 292.897 112.937 293.336 114.472V114.801C293.116 115.897 292.897 116.72 292.678 117.268C292.787 118.145 292.842 118.967 292.842 119.735C292.952 120.393 293.007 121.106 293.007 121.873C292.897 122.202 292.733 122.695 292.513 123.353C292.294 123.902 292.294 124.505 292.513 125.163C292.623 125.382 292.733 125.82 292.842 126.478C293.061 127.027 293.061 127.575 292.842 128.123C292.623 128.671 292.349 129.274 292.02 129.932C291.691 130.48 291.417 131.138 291.197 131.906C290.869 133.222 290.869 134.592 291.197 136.018C291.526 137.443 291.526 138.759 291.197 139.965C290.978 140.623 290.32 141.555 289.224 142.761C288.127 144.077 287.305 145.009 286.757 145.557C286.318 146.434 285.934 147.311 285.605 148.189C285.276 149.175 284.893 150.107 284.454 150.985C283.577 152.52 282.48 153.835 281.165 154.932C279.959 156.138 278.972 157.673 278.204 159.537C277.327 161.511 276.505 163.594 275.737 165.787C274.97 167.98 274.257 170.063 273.599 172.037C273.27 173.133 273.051 174.339 272.941 175.655C272.941 177.081 272.503 178.067 271.625 178.616C271.625 175.984 271.954 173.243 272.612 170.392C273.38 167.541 274.257 164.745 275.244 162.004C276.34 159.263 277.492 156.631 278.698 154.109C279.904 151.697 281 149.504 281.987 147.531C282.316 146.873 282.919 145.996 283.796 144.899C284.783 143.803 285.386 142.98 285.605 142.432C285.605 141.884 285.605 141.336 285.605 140.787C285.715 140.239 285.77 139.691 285.77 139.143C286.208 138.046 286.592 137.279 286.921 136.84V132.235C287.36 129.055 287.634 125.656 287.744 122.038C287.963 118.31 287.634 114.856 286.757 111.676C286.537 110.799 286.099 110.031 285.441 109.373C284.783 108.715 284.344 107.948 284.125 107.071C281.165 107.838 278.04 107.948 274.75 107.4C271.571 106.742 268.884 105.536 266.691 103.781C265.814 102.575 264.882 101.479 263.895 100.492C263.018 99.3954 262.141 98.2441 261.264 97.038C260.606 96.5994 259.948 96.1608 259.29 95.7222C258.742 95.2836 258.139 94.845 257.481 94.4064C257.262 93.8582 257.042 93.31 256.823 92.7617C256.713 92.1038 256.549 91.5008 256.33 90.9525C255.672 89.9657 255.014 88.9789 254.356 87.9921C253.808 86.8956 253.205 85.8539 252.547 84.8671C252.437 83.9899 252.327 83.1128 252.218 82.2356C252.108 81.2487 251.944 80.2619 251.724 79.2751C251.505 78.6172 251.176 77.9593 250.738 77.3014C250.409 76.5339 250.134 75.876 249.915 75.3278C249.367 73.7927 249.038 71.9835 248.928 69.9002C248.709 67.8169 248.654 65.6788 248.764 63.4859C248.874 61.2929 249.093 59.1548 249.422 57.0715C249.751 54.9882 250.189 53.179 250.738 51.6439C251.286 50.7668 251.779 49.8348 252.218 48.8479C252.656 47.8611 253.15 46.9291 253.698 46.0519C253.808 45.1747 254.082 44.1331 254.52 42.927C254.74 42.598 255.014 42.3787 255.343 42.2691C255.672 42.1594 256.001 41.995 256.33 41.7757C256.659 41.2274 256.987 40.734 257.316 40.2954C257.645 39.8568 258.029 39.3634 258.468 38.8152C260.003 37.6091 261.483 36.3481 262.908 35.0324C264.334 33.7166 265.814 32.4556 267.349 31.2495C267.788 30.9206 268.226 30.7561 268.665 30.7561C269.213 30.6465 269.761 30.3723 270.31 29.9338C272.503 29.9338 274.75 30.3723 277.053 31.2495C279.465 32.0171 281.22 33.1135 282.316 34.5389C282.645 35.6354 283.029 36.5126 283.467 37.1705C284.016 37.938 284.673 38.6507 285.441 39.3086C286.208 39.8568 286.757 40.6244 287.086 41.6112C287.415 42.7077 287.524 43.859 287.415 45.0651C287.415 46.1616 287.689 47.2032 288.237 48.1901C289.333 49.7251 290.375 51.315 291.362 52.9597C292.458 54.6044 293.555 56.1943 294.651 57.7294C294.871 58.6066 294.925 59.8127 294.816 61.3477C294.706 62.7732 294.761 64.0889 294.98 65.295C295.419 68.5845 295.583 71.9287 295.474 75.3278C295.474 78.7269 295.2 81.6873 294.651 84.2092ZM287.415 89.1434C287.634 88.4855 287.744 88.0469 287.744 87.8276C287.524 86.8408 287.195 85.8539 286.757 84.8671C286.428 83.7706 286.318 82.6742 286.428 81.5777C286.647 77.9593 286.866 74.2313 287.086 70.3937C287.415 66.4463 286.757 62.6635 285.112 59.0451C284.454 57.5101 283.577 56.0298 282.48 54.6044C281.494 53.179 280.616 51.6988 279.849 50.1637C279.41 49.1769 279.246 48.2449 279.356 47.3677C279.575 46.4905 279.739 45.6133 279.849 44.7362C280.178 41.5564 279.465 39.0345 277.711 37.1705C276.066 35.3065 273.873 34.1552 271.132 33.7166C267.294 36.2385 264.005 39.1441 261.264 42.4336C258.632 45.6133 256.549 49.6703 255.014 54.6044C254.794 55.4816 254.74 56.4136 254.849 57.4004C254.959 58.3873 254.959 59.3741 254.849 60.3609C253.972 65.8433 254.191 71.3805 255.507 76.9725C256.933 82.4549 258.906 87.1149 261.428 90.9525C262.525 92.1587 263.566 93.3648 264.553 94.5709C265.65 95.6674 266.691 96.8187 267.678 98.0248C268.226 98.902 268.665 99.6695 268.994 100.327C269.323 100.985 269.926 101.588 270.803 102.137C271.79 102.904 272.941 103.452 274.257 103.781C275.682 104.001 276.998 104.275 278.204 104.604C278.533 104.384 278.807 104.11 279.027 103.781C279.356 103.452 279.63 103.178 279.849 102.959C279.63 101.972 279.191 101.095 278.533 100.327C277.985 99.5599 277.437 98.8472 276.888 98.1893C277.217 96.9832 277.053 95.5577 276.395 93.913C275.737 92.1587 275.299 90.6784 275.079 89.4723C274.531 87.6083 273.873 85.5798 273.106 83.3869C272.338 81.0843 271.625 78.7817 270.967 76.4791C270.31 74.0668 269.816 71.7094 269.487 69.4068C269.158 67.1042 269.158 64.9113 269.487 62.828H269.652V63.1569C270.419 65.1306 270.803 67.0494 270.803 68.9134C270.803 70.6678 271.296 72.5318 272.283 74.5054C272.832 75.7116 273.325 77.0273 273.764 78.4527C274.312 79.7685 274.915 81.1391 275.573 82.5645C276.779 84.7575 278.04 87.0052 279.356 89.3078C280.781 91.6104 281.823 94.1871 282.48 97.038C282.919 97.2573 283.303 97.4218 283.632 97.5314C283.961 97.641 284.344 97.8055 284.783 98.0248H284.948C285.386 97.038 285.77 96.3253 286.099 95.8867C286.428 95.3385 286.647 94.7902 286.757 94.242C286.976 93.6937 287.086 93.0358 287.086 92.2683C287.195 91.5008 287.305 90.4591 287.415 89.1434Z" fill="black"/>
<path d="M329.503 10.1972C329.831 10.5262 329.996 11.0196 329.996 11.6774C329.996 12.2257 329.941 12.8836 329.831 13.6511C329.831 14.4186 329.777 15.1862 329.667 15.9537C329.557 16.7212 329.557 17.3243 329.667 17.7629C329.886 19.8462 329.722 22.1488 329.174 24.6707C328.735 27.0829 328.735 29.55 329.174 32.0719C329.503 34.3745 329.612 36.5674 329.503 38.6507C329.503 40.734 329.338 42.8721 329.009 45.0651C329.009 46.0519 329.009 47.0387 329.009 48.0256C329.119 49.0124 329.228 49.9992 329.338 50.9861C328.79 54.2755 328.516 57.2908 328.516 60.032C328.516 62.6635 328.242 65.5143 327.693 68.5845C327.364 70.1195 327.255 71.9287 327.364 74.012C327.584 75.9857 327.858 78.0142 328.187 80.0975C328.516 82.1808 328.845 84.2092 329.174 86.1829C329.612 88.0469 329.941 89.6916 330.16 91.117C329.831 92.6521 329.448 94.1323 329.009 95.5577C328.68 96.8735 328.296 98.2441 327.858 99.6695C327.419 101.095 327.255 102.466 327.364 103.781C327.474 105.097 327.639 106.358 327.858 107.564C327.748 108.332 327.639 109.099 327.529 109.867C327.529 110.525 327.474 111.183 327.364 111.84C327.913 113.266 328.516 114.582 329.174 115.788C329.831 116.994 330.709 117.981 331.805 118.748C331.805 119.625 331.75 120.448 331.641 121.215C331.641 121.983 331.586 122.805 331.476 123.682C330.928 125.546 330.599 127.191 330.489 128.616C330.489 130.042 330.325 131.358 329.996 132.564C329.667 133.66 329.119 134.702 328.351 135.689C327.584 136.676 326.323 137.662 324.568 138.649C323.801 138.43 322.65 138.375 321.114 138.485C319.689 138.594 318.538 138.375 317.661 137.827C316.893 137.279 316.071 136.621 315.194 135.853C314.316 135.195 313.494 134.428 312.726 133.551C312.069 132.673 311.575 131.741 311.246 130.755C310.917 129.768 310.917 128.726 311.246 127.63C311.137 127.301 310.917 127.081 310.588 126.972C310.369 126.752 310.15 126.533 309.93 126.314C309.492 124.998 309.053 123.682 308.615 122.367C308.286 120.941 307.902 119.571 307.463 118.255C306.915 117.158 306.312 115.952 305.654 114.636C305.106 113.321 304.667 112.115 304.338 111.018C304.119 110.031 303.9 109.044 303.681 108.058C303.461 107.071 303.242 106.084 303.023 105.097C302.365 103.452 301.597 101.643 300.72 99.6695C299.953 97.6959 299.295 95.6674 298.746 93.5841C298.417 92.2683 298.308 90.9525 298.417 89.6368C298.527 88.321 298.417 87.0601 298.089 85.854C298.198 85.0864 298.253 84.3737 298.253 83.7158C298.253 82.9483 298.253 82.1808 298.253 81.4132C298.034 78.8913 298.089 76.5339 298.417 74.341C298.856 72.0384 299.404 69.7906 300.062 67.5976C300.281 66.7205 300.336 65.7885 300.227 64.8016C300.227 63.8148 300.117 62.828 299.898 61.8412C299.788 60.8543 299.678 59.8127 299.569 58.7162C299.459 57.6197 299.514 56.5233 299.733 55.4268C300.172 52.9049 300.336 50.2185 300.227 47.3677C300.117 44.4072 299.843 41.666 299.404 39.1441C299.185 37.938 299.185 36.8415 299.404 35.8547C299.733 34.8679 299.733 33.8262 299.404 32.7298C299.624 32.9491 299.843 33.0587 300.062 33.0587C300.939 36.8964 301.707 40.734 302.365 44.5717C303.023 48.2997 303.79 51.8632 304.667 55.2623C304.777 57.1263 304.832 58.9355 304.832 60.6899C304.942 62.4442 305.106 64.2534 305.325 66.1174C305.545 67.1042 305.38 68.0911 304.832 69.0779C304.284 70.0647 303.9 70.9967 303.681 71.8739C303.571 72.2028 303.461 72.8607 303.352 73.8475C303.242 74.7247 303.187 75.4374 303.187 75.9857C303.297 76.5339 303.406 77.0273 303.516 77.4659C303.626 77.9045 303.735 78.3431 303.845 78.7817C303.626 79.6589 303.406 80.8102 303.187 82.2356C302.968 83.661 303.023 85.0316 303.352 86.3474C303.571 87.4438 303.845 88.5403 304.174 89.6368C304.503 90.6236 304.777 91.6653 304.996 92.7617C305.325 93.6389 305.819 94.5161 306.477 95.3933C307.134 96.1608 307.683 96.9283 308.121 97.6959C308.67 98.902 308.834 100.163 308.615 101.479C308.395 102.794 308.56 104.165 309.108 105.59C309.437 106.139 309.766 106.687 310.095 107.235C310.534 107.783 310.972 108.332 311.411 108.88C311.63 109.538 311.794 110.196 311.904 110.854C312.123 111.511 312.343 112.115 312.562 112.663C312.891 113.321 313.275 113.979 313.713 114.636C314.262 115.185 314.7 115.733 315.029 116.281C315.139 116.829 315.194 117.323 315.194 117.761C315.303 118.09 315.358 118.474 315.358 118.913C315.797 120.119 316.29 121.489 316.838 123.024C317.386 124.45 318.099 125.711 318.976 126.807C320.402 126.917 321.498 126.533 322.266 125.656C323.143 124.669 323.472 123.463 323.253 122.038C323.033 121.16 322.814 120.338 322.595 119.571C322.485 118.693 322.321 117.871 322.101 117.103C321.443 114.253 321.389 111.402 321.937 108.551C322.485 105.59 323.033 102.849 323.582 100.327C324.349 97.3669 324.623 94.242 324.404 90.9525C324.185 87.5535 324.239 84.4285 324.568 81.5777C324.678 80.8102 324.459 79.9878 323.911 79.1106C323.362 78.1238 323.198 77.137 323.417 76.1501C323.636 75.0537 323.636 73.9572 323.417 72.8607C323.198 71.7642 323.198 70.6678 323.417 69.5713C323.965 66.1722 324.349 62.6635 324.568 59.0451C324.788 55.3171 324.952 51.6439 325.062 48.0256C325.281 44.4072 325.555 40.9533 325.884 37.6639C326.213 34.2648 326.761 31.1947 327.529 28.4535C327.529 27.9053 327.419 27.1926 327.2 26.3154C327.748 24.7803 328.132 23.3001 328.351 21.8747C328.68 20.3396 328.954 18.8045 329.174 17.2695C329.393 16.2826 329.283 15.1313 328.845 13.8156C328.516 12.4998 328.735 11.2937 329.503 10.1972Z" fill="black"/>
<path d="M327.354 21.0523C328.122 21.6005 329.273 22.3133 330.808 23.1904C332.233 24.0676 333.33 24.6707 334.097 24.9996C335.632 25.1093 337.168 25.2189 338.703 25.3286C340.238 25.3286 341.773 25.3834 343.308 25.493C345.83 26.0413 348.735 26.5895 352.025 27.1377C355.424 27.5763 358.494 27.686 361.235 27.4667C363.318 27.2474 365.566 27.357 367.978 27.7956C370.391 28.1246 372.529 27.7956 374.393 26.8088C374.503 26.9184 374.557 27.0281 374.557 27.1377C374.667 27.686 374.612 28.2342 374.393 28.7825C374.174 29.221 374.174 29.7145 374.393 30.2627C374.612 30.7013 374.777 31.0851 374.886 31.414C375.106 31.7429 375.325 32.1267 375.544 32.5653C374.996 33.4425 374.777 34.2648 374.886 35.0324C374.996 35.6902 374.831 36.2385 374.393 36.6771C374.722 37.1157 374.996 37.5542 375.215 37.9928C375.544 38.3218 375.818 38.7055 376.038 39.1441C376.805 40.8985 377.134 42.8173 377.024 44.9006C376.915 46.8743 376.97 48.6835 377.189 50.3282C376.97 50.2185 376.86 50.1637 376.86 50.1637C376.531 48.4093 376.147 46.4357 375.709 44.2427C375.27 41.9401 374.612 40.131 373.735 38.8152C372.967 38.267 372.2 37.7187 371.432 37.1705C370.774 36.5126 370.117 35.9095 369.459 35.3613C369.02 34.7034 368.746 34.1552 368.636 33.7166C368.636 33.278 368.307 32.8942 367.65 32.5653C367.211 32.4556 366.772 32.5105 366.334 32.7298C366.005 32.9491 365.621 33.1135 365.182 33.2232C364.634 33.1135 364.086 33.0587 363.538 33.0587C363.099 32.9491 362.606 32.8394 362.058 32.7298C360.851 32.5105 359.536 32.5653 358.11 32.8942C356.794 33.2232 355.698 33.4973 354.821 33.7166C354.163 33.6069 353.505 33.5521 352.847 33.5521C352.189 33.4425 351.477 33.3328 350.709 33.2232C349.722 33.5521 349.064 33.9359 348.735 34.3745C348.516 34.8131 348.352 35.3065 348.242 35.8547C348.242 36.4029 348.242 37.0608 348.242 37.8284C348.242 38.4862 348.023 39.199 347.584 39.9665C347.365 40.2954 347.091 40.6244 346.762 40.9533C346.433 41.1726 346.323 41.6112 346.433 42.2691C346.542 42.8173 346.762 43.3656 347.091 43.9138C347.529 44.3524 347.913 44.791 348.242 45.2296C349.777 45.6682 351.751 45.8875 354.163 45.8875C356.685 45.8875 358.768 45.8326 360.413 45.723C361.729 45.6133 363.044 45.394 364.36 45.0651C365.676 44.7362 367.101 44.8458 368.636 45.394C370.5 46.0519 372.035 47.258 373.242 49.0124C374.557 50.6571 375.709 52.247 376.695 53.7821C376.586 53.8917 376.531 53.9465 376.531 53.9465C375.435 53.179 374.448 52.1374 373.571 50.8216C372.693 49.5058 371.542 48.6286 370.117 48.1901C367.924 47.7515 365.511 47.8611 362.88 48.519C360.358 49.1769 358.055 49.5606 355.972 49.6703C355.424 49.6703 354.656 49.6703 353.669 49.6703C352.683 49.6703 351.641 49.6703 350.545 49.6703C349.558 49.6703 348.626 49.7251 347.749 49.8348C346.871 49.8348 346.268 49.9444 345.939 50.1637C345.61 51.1505 345.556 52.0277 345.775 52.7952C346.104 53.5628 346.378 54.2755 346.597 54.9334L346.104 56.907C346.323 57.236 346.433 57.6197 346.433 58.0583C346.542 58.3873 346.652 58.7162 346.762 59.0451C346.762 59.1548 346.762 59.5934 346.762 60.3609C346.762 61.0188 346.707 61.7863 346.597 62.6635C346.597 63.431 346.542 64.2534 346.433 65.1306C346.323 65.8981 346.268 66.3915 346.268 66.6108C346.159 68.0362 346.049 69.5713 345.939 71.216C345.83 72.7511 345.61 74.1765 345.281 75.4923C345.501 76.1501 345.61 76.808 345.61 77.4659C345.72 78.0142 345.83 78.6172 345.939 79.2751C345.062 83.4417 344.404 88.0469 343.966 93.0907C343.527 98.0248 344.075 102.959 345.61 107.893C347.694 108.112 349.777 108.222 351.86 108.222C354.053 108.222 356.137 108.496 358.11 109.044C359.316 109.264 360.522 109.209 361.729 108.88C362.935 108.441 364.305 108.441 365.84 108.88C367.704 109.428 369.294 110.36 370.61 111.676C372.035 112.882 373.187 114.362 374.064 116.117C375.051 117.871 375.818 119.735 376.367 121.709C377.024 123.682 377.518 125.601 377.847 127.465C377.737 127.465 377.573 127.356 377.353 127.136C377.024 126.149 376.75 125.108 376.531 124.011C376.421 122.915 376.147 121.873 375.709 120.886C374.174 117.597 371.652 115.349 368.143 114.143C364.634 112.827 361.071 112.443 357.452 112.992C356.794 113.101 356.082 113.101 355.314 112.992C354.547 112.772 353.779 112.608 353.012 112.498C352.244 112.389 351.477 112.334 350.709 112.334C349.941 112.224 349.284 112.334 348.735 112.663C347.858 112.443 347.091 112.389 346.433 112.498C345.775 112.498 345.062 112.389 344.295 112.169C343.746 111.95 343.143 111.731 342.485 111.511C341.937 111.292 341.389 111.073 340.841 110.854C340.512 111.182 340.183 111.511 339.854 111.84C339.525 112.06 339.141 112.279 338.703 112.498C338.703 112.389 338.648 112.334 338.538 112.334C338.757 110.689 339.141 109.593 339.689 109.044C340.238 108.386 340.786 107.509 341.334 106.413C340.457 103.562 340.128 100.93 340.347 98.5182C340.676 95.9963 340.786 93.31 340.676 90.4591C340.567 90.0206 340.402 89.4175 340.183 88.65C340.073 87.7728 340.128 87.1149 340.347 86.6763C340.457 86.457 340.567 86.2377 340.676 86.0184C340.896 85.6895 341.06 85.3605 341.17 85.0316C341.06 84.4833 340.896 83.7706 340.676 82.8935C340.567 81.3584 340.567 79.604 340.676 77.6304C340.786 75.5471 340.95 73.7927 341.17 72.3673C341.17 71.8191 341.115 71.3257 341.005 70.8871C341.005 70.4485 341.005 69.9551 341.005 69.4068C341.444 68.0911 341.718 66.5012 341.828 64.6372C342.047 62.7732 342.102 60.9092 341.992 59.0451C341.882 57.0715 341.663 55.2075 341.334 53.4531C341.115 51.5891 340.841 49.9444 340.512 48.519L332.124 47.5322V46.7098C332.562 46.6002 332.946 46.4357 333.275 46.2164C333.604 45.9971 333.878 45.8326 334.097 45.723C334.755 45.5037 335.304 45.4489 335.742 45.5585C336.29 45.5585 336.784 45.6133 337.222 45.723C337.661 45.8326 338.1 45.8875 338.538 45.8875C338.977 45.8875 339.47 45.723 340.018 45.394H340.347C340.347 43.53 340.183 41.6112 339.854 39.6375C339.635 37.6639 339.58 35.8547 339.689 34.21C339.799 33.0039 340.018 32.1267 340.347 31.5785C340.786 30.9206 340.896 30.0434 340.676 28.9469C339.909 28.7276 338.757 28.3439 337.222 27.7956C335.687 27.1377 334.152 26.425 332.617 25.6575C331.192 24.89 329.931 24.1224 328.834 23.3549C327.738 22.4777 327.244 21.7102 327.354 21.0523Z" fill="black"/>
<path d="M406.005 0.164469C406.334 0.164469 406.608 0.219295 406.827 0.328948C406.827 1.86401 406.772 3.28943 406.663 4.60519C406.663 5.81132 406.717 6.90779 406.827 7.89462C406.827 8.7718 406.937 9.53933 407.156 10.1972C407.375 10.7455 407.375 11.5678 407.156 12.6643C407.046 13.5415 406.937 14.6928 406.827 16.1182C406.717 17.4339 406.608 18.8594 406.498 20.3944C406.389 21.9295 406.334 23.4097 406.334 24.8351C406.334 26.2606 406.443 27.357 406.663 28.1246C406.992 29.8789 407.211 31.7978 407.32 33.8811C407.54 35.9644 407.54 37.938 407.32 39.802C406.992 42.7625 406.717 45.9971 406.498 49.5058C406.279 53.0145 406.06 56.0847 405.84 58.7162C405.621 61.7863 405.621 64.9661 405.84 68.2555C406.169 71.4353 406.224 74.6151 406.005 77.7949C406.224 79.9878 406.389 82.2356 406.498 84.5382C406.717 86.7311 406.937 88.9241 407.156 91.117C406.937 92.981 406.717 94.7902 406.498 96.5446C406.389 98.1893 406.498 99.9436 406.827 101.808L407.32 105.755C407.101 106.851 406.937 107.948 406.827 109.044C406.827 110.141 406.717 111.237 406.498 112.334C406.279 114.527 406.169 116.775 406.169 119.077C406.279 121.38 406.224 123.463 406.005 125.327C405.895 126.204 405.895 127.246 406.005 128.452C406.224 129.658 406.114 130.7 405.676 131.577C405.895 132.783 406.005 134.208 406.005 135.853C406.005 137.498 405.895 139.197 405.676 140.952C405.566 142.706 405.347 144.406 405.018 146.05C404.799 147.695 404.579 149.175 404.36 150.491C404.47 153.232 404.524 155.919 404.524 158.55C404.524 161.291 404.579 164.087 404.689 166.938C404.799 168.144 404.744 169.46 404.524 170.886C404.415 172.311 404.25 173.462 404.031 174.339C404.141 175.217 404.196 176.094 404.196 176.971C404.196 177.848 404.25 178.725 404.36 179.602C404.141 182.344 403.976 185.03 403.867 187.662C403.867 190.403 403.757 193.144 403.538 195.885C403.428 195.885 403.318 195.94 403.209 196.05C403.209 193.089 403.154 189.964 403.044 186.675C402.935 183.495 402.606 180.644 402.057 178.122C402.057 176.039 402.003 174.01 401.893 172.037C401.893 170.063 401.893 168.035 401.893 165.951C401.674 164.745 401.4 163.21 401.071 161.346C400.742 159.592 400.687 157.947 400.906 156.412C401.235 154.658 401.345 152.629 401.235 150.327C401.235 148.024 401.345 145.831 401.564 143.748C401.674 142.322 401.838 140.952 402.057 139.636C402.386 138.32 402.66 137.004 402.88 135.689C402.66 134.702 402.496 133.715 402.386 132.728C402.386 131.741 402.277 130.755 402.057 129.768C401.948 129 401.948 128.123 402.057 127.136C402.277 126.04 402.277 124.998 402.057 124.011C401.838 121.818 402.003 119.406 402.551 116.775C403.209 114.033 403.209 111.347 402.551 108.715C402.332 107.729 402.057 106.577 401.728 105.262C401.509 103.836 401.18 102.52 400.742 101.314C400.522 100.766 400.248 100.273 399.919 99.834C399.7 99.2858 399.481 98.7375 399.261 98.1893C399.152 97.5314 399.097 96.8735 399.097 96.2156C399.207 95.5577 399.097 94.9547 398.768 94.4064C398.22 93.6389 397.507 93.2003 396.63 93.0907C395.862 92.8714 395.204 92.1587 394.656 90.9525C394.437 90.2947 394.327 89.6368 394.327 88.9789C394.437 88.321 394.547 87.7179 394.656 87.1697C394.876 86.5118 395.04 85.9088 395.15 85.3605C395.259 84.8123 395.15 84.2641 394.821 83.7158C394.272 82.8386 393.669 81.9615 393.012 81.0843C392.354 80.0975 391.751 79.1655 391.202 78.2883C390.983 77.74 390.873 76.9725 390.873 75.9857C390.873 74.9988 390.764 74.1765 390.544 73.5186L389.393 72.3673C388.735 70.5033 388.242 68.6941 387.913 66.9398C387.584 65.1854 386.652 63.76 385.117 62.6635H384.952C384.843 63.1021 384.678 63.431 384.459 63.6503C384.349 63.8696 384.295 64.1438 384.295 64.4727C384.404 65.2402 384.514 66.0078 384.624 66.7753C384.733 67.4332 384.843 68.1459 384.952 68.9134C384.952 69.2424 384.952 69.7906 384.952 70.5581C385.062 71.216 385.117 71.9287 385.117 72.6963C385.117 73.4638 385.117 74.1765 385.117 74.8344C385.117 75.4923 385.117 75.9857 385.117 76.3146C384.788 78.1786 384.514 80.2619 384.295 82.5645C384.075 84.7575 384.13 86.8956 384.459 88.9789C384.678 90.0754 384.843 91.1718 384.952 92.2683C385.172 93.2551 385.391 94.3516 385.61 95.5577C385.501 97.2025 385.391 98.7375 385.281 100.163C385.172 101.479 385.062 102.794 384.952 104.11C384.952 104.987 384.952 105.865 384.952 106.742C385.062 107.619 385.117 108.496 385.117 109.373C384.898 111.128 384.569 113.047 384.13 115.13C383.691 117.213 383.417 119.077 383.308 120.722C383.527 121.38 383.691 122.038 383.801 122.695C383.911 123.353 384.075 123.956 384.295 124.505C384.514 126.807 384.514 129.329 384.295 132.07C384.185 134.702 383.911 136.895 383.472 138.649C383.582 139.197 383.637 139.8 383.637 140.458C383.746 141.116 383.801 141.774 383.801 142.432C383.472 144.296 383.308 146.434 383.308 148.846C383.308 151.259 383.417 153.232 383.637 154.767C383.856 155.645 383.856 156.905 383.637 158.55C383.417 160.305 383.088 161.291 382.65 161.511C382.65 157.673 382.54 154.219 382.321 151.149C382.211 148.079 381.882 144.844 381.334 141.445C381.553 140.787 381.663 140.129 381.663 139.472C381.773 138.814 381.937 138.156 382.156 137.498C381.937 135.744 381.773 134.099 381.663 132.564C381.663 131.029 381.444 129.439 381.005 127.794C381.115 127.356 381.17 126.917 381.17 126.478C381.17 126.04 381.224 125.601 381.334 125.163L380.347 123.682C380.018 122.476 379.963 121.051 380.183 119.406C380.402 117.652 380.621 116.446 380.841 115.788V109.373C381.06 108.167 381.224 106.742 381.334 105.097C381.444 103.343 381.389 101.643 381.17 99.9985C381.06 98.0248 380.895 95.9415 380.676 93.7486C380.567 91.446 380.457 89.1434 380.347 86.8408C380.238 84.4285 380.183 82.0711 380.183 79.7685C380.183 77.3563 380.347 75.1085 380.676 73.0252C380.457 71.4901 380.292 69.9551 380.183 68.42C380.073 66.8849 379.963 65.3499 379.854 63.8148C380.402 60.5254 380.841 57.0715 381.17 53.4531C381.499 49.8348 381.882 46.5453 382.321 43.5849C382.65 41.6112 382.759 39.8568 382.65 38.3218C382.54 36.7867 382.376 35.142 382.156 33.3876C382.047 31.8526 381.992 30.2627 381.992 28.618C381.992 26.9733 381.992 25.3834 381.992 23.8483C381.882 23.4097 381.827 22.7518 381.827 21.8747C381.827 20.9975 381.827 20.1203 381.827 19.2431C381.937 18.3659 382.047 17.5984 382.156 16.9405C382.266 16.2826 382.431 15.8989 382.65 15.7892V15.9537C382.979 16.6116 383.088 17.2146 382.979 17.7629C382.869 18.3111 382.924 19.0238 383.143 19.901C383.363 22.3133 383.582 24.6707 383.801 26.9733C384.02 29.2759 384.24 31.6333 384.459 34.0455C385.117 36.6771 385.72 39.3634 386.268 42.1046C386.926 44.8458 387.639 47.4773 388.406 49.9992C389.503 52.7404 390.599 55.4268 391.696 58.0583C392.792 60.6899 393.889 63.3762 394.985 66.1174C396.191 68.9682 397.178 71.7642 397.946 74.5054C398.823 77.137 400.139 79.5492 401.893 81.7422C402.003 81.7422 402.112 81.6873 402.222 81.5777C402.003 75.1085 401.948 68.3104 402.057 61.1833C402.167 53.9465 402.715 46.8195 403.702 39.802V31.7429C404.579 26.5895 405.182 21.3813 405.511 16.1182C405.84 10.8551 406.005 5.5372 406.005 0.164469Z" fill="black"/>
<path d="M429.125 25.6575C430.111 25.7671 431.098 25.8768 432.085 25.9864C433.181 25.9864 434.168 26.1509 435.045 26.4799C435.703 26.4799 436.306 26.4799 436.855 26.4799C437.513 26.3702 438.17 26.2606 438.828 26.1509C440.583 26.8088 442.776 27.4667 445.407 28.1246C448.148 28.7824 450.451 29.55 452.315 30.4272C453.082 30.6465 453.795 31.0302 454.453 31.5785C455.111 32.1267 455.824 32.5653 456.591 32.8942V33.3876C456.482 33.3876 456.372 33.4425 456.262 33.5521C456.262 33.5521 456.207 33.5521 456.098 33.5521C453.795 32.1267 451.164 31.3043 448.203 31.085C445.243 30.8658 442.282 30.9206 439.322 31.2495C438.554 31.3592 437.787 31.2495 437.019 30.9206C436.361 30.5916 435.649 30.3175 434.881 30.0982C434.223 29.7693 433.51 29.6048 432.743 29.6048C432.085 29.6048 431.372 29.9886 430.605 30.7561C430.714 31.1947 430.769 31.5785 430.769 31.9074C430.769 32.2363 430.824 32.5653 430.934 32.8942C430.824 33.4425 430.55 33.9359 430.111 34.3745C429.782 34.8131 429.508 35.3613 429.289 36.0192C429.399 36.6771 429.453 37.335 429.453 37.9928C429.563 38.6507 429.673 39.3634 429.782 40.131C429.673 40.6792 429.453 41.2274 429.125 41.7757C428.905 42.3239 428.741 42.8173 428.631 43.2559C428.412 43.8041 428.302 44.4072 428.302 45.0651C428.412 45.723 428.412 46.2712 428.302 46.7098C428.192 47.258 428.247 47.8611 428.467 48.519C428.686 49.0672 428.905 49.5606 429.125 49.9992C429.344 50.7668 429.234 51.5343 428.796 52.3018C428.467 52.9597 428.302 53.6176 428.302 54.2755V63.9793C428.412 64.5275 428.521 65.0209 428.631 65.4595C428.741 65.7885 428.741 66.3367 428.631 67.1042C428.302 68.9682 428.083 71.1612 427.973 73.6831C427.864 76.0953 427.864 78.2334 427.973 80.0975L427.48 86.0184C427.699 88.2114 427.864 90.4591 427.973 92.7617C428.083 94.9547 428.192 97.1476 428.302 99.3406C428.192 100.327 428.083 101.314 427.973 102.301C427.973 103.288 427.918 104.33 427.809 105.426C427.809 106.303 427.809 107.235 427.809 108.222C427.918 109.209 428.028 110.141 428.138 111.018C427.918 111.566 427.754 112.169 427.644 112.827C427.535 113.375 427.425 113.924 427.315 114.472C427.096 115.897 427.315 117.213 427.973 118.419C428.631 119.516 428.85 120.831 428.631 122.367C428.521 122.586 428.467 123.134 428.467 124.011C428.576 124.779 428.521 125.437 428.302 125.985C428.412 126.204 428.521 126.752 428.631 127.63C428.85 128.397 428.85 129.055 428.631 129.603C428.521 130.371 428.412 131.138 428.302 131.906C428.192 132.564 428.028 133.276 427.809 134.044C428.357 137.991 428.576 141.884 428.467 145.721C428.357 149.559 428.576 153.397 429.125 157.234C429.234 157.783 429.344 158.495 429.453 159.373C429.563 160.359 429.618 161.291 429.618 162.169C429.728 163.155 429.782 164.033 429.782 164.8C429.782 165.568 429.728 166.006 429.618 166.116C429.618 164.91 429.453 163.758 429.125 162.662C428.796 161.566 428.521 160.579 428.302 159.701V157.07C427.973 155.316 427.589 153.506 427.151 151.642C426.822 149.778 426.493 148.079 426.164 146.544C425.945 144.46 425.725 142.432 425.506 140.458C425.396 138.485 425.232 136.511 425.013 134.537C425.122 133.441 425.177 132.399 425.177 131.412C425.177 130.426 425.232 129.439 425.342 128.452L424.355 124.011C424.026 120.393 424.026 116.775 424.355 113.156C424.684 109.538 425.122 106.029 425.671 102.63C425.561 101.205 425.451 99.834 425.342 98.5182C425.232 97.0928 425.122 95.6674 425.013 94.242C424.793 92.378 424.739 90.3495 424.848 88.1565C424.958 85.9636 424.903 83.9351 424.684 82.0711C424.793 80.6457 424.848 79.2203 424.848 77.7949C424.848 76.3694 424.903 74.944 425.013 73.5186C424.903 70.9967 424.848 68.5296 424.848 66.1174C424.848 63.7052 424.848 61.2381 424.848 58.7162C424.739 57.839 424.629 57.0715 424.519 56.4136C424.519 55.6461 424.464 54.8237 424.355 53.9465L423.368 50.9861C423.258 50.1089 423.204 49.2317 423.204 48.3545C423.313 47.4773 423.258 46.655 423.039 45.8875C422.82 45.3392 422.546 44.7362 422.217 44.0783C421.888 43.4204 421.614 42.8173 421.394 42.2691C421.175 41.7209 421.175 41.2823 421.394 40.9533C421.723 40.5147 421.943 40.131 422.052 39.802C422.381 38.267 422.381 36.9512 422.052 35.8547C421.723 34.6486 421.175 33.5521 420.408 32.5653C419.859 31.7978 418.927 31.4688 417.611 31.5785C416.405 31.6881 415.199 31.8526 413.993 32.0719C412.239 32.4008 410.21 32.6201 407.908 32.7298C405.605 32.7298 403.686 32.5653 402.151 32.2364C401.384 32.1267 400.452 32.2912 399.355 32.7298C398.149 33.1683 397.217 33.0587 396.559 32.4008C396.559 32.2912 396.614 32.1815 396.724 32.0719C397.601 32.0719 398.259 32.017 398.697 31.9074C399.136 31.6881 399.629 31.4688 400.178 31.2495H403.796C406.099 30.7013 408.566 30.153 411.197 29.6048C413.938 29.0566 416.405 28.5083 418.598 27.9601C419.256 27.7408 420.133 27.5763 421.23 27.4667C422.326 27.2474 423.368 27.0829 424.355 26.9733C425.451 26.754 426.438 26.5895 427.315 26.4799C428.192 26.2606 428.796 25.9864 429.125 25.6575Z" fill="black"/>
<path d="M449.424 120.557C450.082 120.667 450.74 120.831 451.397 121.051C452.165 121.16 452.713 121.544 453.042 122.202C453.261 122.641 453.316 123.079 453.207 123.518C453.097 123.956 453.042 124.34 453.042 124.669C453.152 126.423 453.371 127.959 453.7 129.274C454.029 130.48 453.81 132.016 453.042 133.88C452.384 134.099 451.836 134.263 451.397 134.373C451.069 134.263 450.575 133.989 449.917 133.551C449.259 133.112 448.656 132.564 448.108 131.906C447.56 131.248 447.121 130.59 446.792 129.932C446.354 129.165 446.189 128.507 446.299 127.959C446.409 127.52 446.683 127.081 447.121 126.643C447.45 126.095 447.669 125.601 447.779 125.163C448.108 124.505 448.163 123.847 447.944 123.189C447.724 122.531 447.724 121.928 447.944 121.38C448.601 120.941 449.095 120.667 449.424 120.557Z" fill="black"/>
<path d="M466.186 30.2627C466.953 30.9206 467.392 31.9074 467.502 33.2232C467.721 34.5389 467.83 35.9644 467.83 37.4994C467.83 39.0345 467.776 40.5696 467.666 42.1046C467.556 43.6397 467.611 44.9555 467.83 46.0519L468.324 49.0124C468.105 50.2185 467.83 51.7536 467.502 53.6176C467.173 55.372 467.282 57.0167 467.83 58.5517C467.94 58.8807 468.159 59.3741 468.488 60.032C468.817 60.5802 469.091 61.0736 469.311 61.5122C469.201 62.499 469.146 63.5407 469.146 64.6372C469.146 65.624 469.146 66.6108 469.146 67.5976C469.366 68.4748 469.585 69.1327 469.804 69.5713C469.585 70.7774 469.256 72.0932 468.817 73.5186C468.379 74.8344 468.105 76.0405 467.995 77.137C467.885 77.9045 467.94 78.6172 468.159 79.2751C468.379 79.8233 468.598 80.4264 468.817 81.0843C469.146 81.6325 469.42 82.1808 469.64 82.729C469.859 83.2772 469.914 83.8803 469.804 84.5382C469.694 85.3057 469.475 85.9636 469.146 86.5118C468.927 87.0601 468.653 87.6631 468.324 88.321C468.105 88.8693 467.885 89.4723 467.666 90.1302C467.556 90.7881 467.611 91.6104 467.83 92.5973C468.05 93.8034 468.379 95.1191 468.817 96.5446C469.366 97.8603 469.53 99.1213 469.311 100.327C469.201 100.766 468.982 101.205 468.653 101.643C468.324 102.082 468.05 102.52 467.83 102.959C467.721 104.275 467.666 105.59 467.666 106.906C467.666 108.222 467.611 109.483 467.502 110.689C468.159 115.185 468.488 119.954 468.488 124.998C468.598 130.042 468.488 135.031 468.159 139.965C468.379 140.404 468.488 140.787 468.488 141.116C468.598 141.555 468.762 142.048 468.982 142.596C468.872 143.693 468.762 144.789 468.653 145.886C468.653 146.982 468.598 148.079 468.488 149.175C468.269 150.71 468.159 152.41 468.159 154.274C468.269 156.138 468.159 158.002 467.83 159.866C467.83 161.401 467.776 162.881 467.666 164.307C467.666 165.732 467.666 167.158 467.666 168.583C467.556 168.583 467.502 168.528 467.502 168.418C467.173 166.554 466.953 165.074 466.844 163.978C466.844 162.881 466.844 161.401 466.844 159.537C466.844 158.879 466.844 158.221 466.844 157.563C466.953 156.905 467.008 156.193 467.008 155.425L464.541 132.728V123.518C463.664 115.952 463.17 108.112 463.061 99.9985C462.951 91.7749 462.732 83.7158 462.403 75.8212C462.293 73.1897 462.513 70.5033 463.061 67.7621C463.609 65.0209 463.828 62.1701 463.719 59.2096C463.938 58.3324 464.157 57.5101 464.377 56.7425C464.706 55.975 465.034 55.1527 465.363 54.2755C465.802 51.6439 466.021 48.6835 466.021 45.394C466.021 42.1046 466.021 39.3086 466.021 37.006C466.131 35.7999 466.076 34.7034 465.857 33.7166C465.747 32.6201 465.857 31.4688 466.186 30.2627Z" fill="black"/>
<path d="M498.52 0.164469C498.849 0.164469 499.123 0.219295 499.342 0.328948C499.342 1.86401 499.287 3.28943 499.178 4.60519C499.178 5.81132 499.232 6.90779 499.342 7.89462C499.342 8.7718 499.452 9.53933 499.671 10.1972C499.89 10.7455 499.89 11.5678 499.671 12.6643C499.561 13.5415 499.452 14.6928 499.342 16.1182C499.232 17.4339 499.123 18.8594 499.013 20.3944C498.904 21.9295 498.849 23.4097 498.849 24.8351C498.849 26.2606 498.958 27.357 499.178 28.1246C499.507 29.8789 499.726 31.7978 499.836 33.8811C500.055 35.9644 500.055 37.938 499.836 39.802C499.507 42.7625 499.232 45.9971 499.013 49.5058C498.794 53.0145 498.575 56.0847 498.355 58.7162C498.136 61.7863 498.136 64.9661 498.355 68.2555C498.684 71.4353 498.739 74.6151 498.52 77.7949C498.739 79.9878 498.904 82.2356 499.013 84.5382C499.232 86.7311 499.452 88.9241 499.671 91.117C499.452 92.981 499.232 94.7902 499.013 96.5446C498.904 98.1893 499.013 99.9436 499.342 101.808L499.836 105.755C499.616 106.851 499.452 107.948 499.342 109.044C499.342 110.141 499.232 111.237 499.013 112.334C498.794 114.527 498.684 116.775 498.684 119.077C498.794 121.38 498.739 123.463 498.52 125.327C498.41 126.204 498.41 127.246 498.52 128.452C498.739 129.658 498.629 130.7 498.191 131.577C498.41 132.783 498.52 134.208 498.52 135.853C498.52 137.498 498.41 139.197 498.191 140.952C498.081 142.706 497.862 144.406 497.533 146.05C497.314 147.695 497.094 149.175 496.875 150.491C496.985 153.232 497.04 155.919 497.04 158.55C497.04 161.291 497.094 164.087 497.204 166.938C497.314 168.144 497.259 169.46 497.04 170.886C496.93 172.311 496.765 173.462 496.546 174.339C496.656 175.217 496.711 176.094 496.711 176.971C496.711 177.848 496.765 178.725 496.875 179.602C496.656 182.344 496.491 185.03 496.382 187.662C496.382 190.403 496.272 193.144 496.053 195.885C495.943 195.885 495.833 195.94 495.724 196.05C495.724 193.089 495.669 189.964 495.559 186.675C495.45 183.495 495.121 180.644 494.572 178.122C494.572 176.039 494.518 174.01 494.408 172.037C494.408 170.063 494.408 168.035 494.408 165.951C494.189 164.745 493.915 163.21 493.586 161.346C493.257 159.592 493.202 157.947 493.421 156.412C493.75 154.658 493.86 152.629 493.75 150.327C493.75 148.024 493.86 145.831 494.079 143.748C494.189 142.322 494.353 140.952 494.572 139.636C494.901 138.32 495.175 137.004 495.395 135.689C495.175 134.702 495.011 133.715 494.901 132.728C494.901 131.741 494.792 130.755 494.572 129.768C494.463 129 494.463 128.123 494.572 127.136C494.792 126.04 494.792 124.998 494.572 124.011C494.353 121.818 494.518 119.406 495.066 116.775C495.724 114.033 495.724 111.347 495.066 108.715C494.847 107.729 494.572 106.577 494.243 105.262C494.024 103.836 493.695 102.52 493.257 101.314C493.037 100.766 492.763 100.273 492.434 99.834C492.215 99.2858 491.996 98.7375 491.776 98.1893C491.667 97.5314 491.612 96.8735 491.612 96.2156C491.722 95.5577 491.612 94.9547 491.283 94.4064C490.735 93.6389 490.022 93.2003 489.145 93.0907C488.377 92.8714 487.719 92.1587 487.171 90.9525C486.952 90.2947 486.842 89.6368 486.842 88.9789C486.952 88.321 487.062 87.7179 487.171 87.1697C487.391 86.5118 487.555 85.9088 487.665 85.3605C487.774 84.8123 487.665 84.2641 487.336 83.7158C486.787 82.8386 486.184 81.9615 485.527 81.0843C484.869 80.0975 484.266 79.1655 483.717 78.2883C483.498 77.74 483.388 76.9725 483.388 75.9857C483.388 74.9988 483.279 74.1765 483.059 73.5186L481.908 72.3673C481.25 70.5033 480.757 68.6941 480.428 66.9398C480.099 65.1854 479.167 63.76 477.632 62.6635H477.467C477.358 63.1021 477.193 63.431 476.974 63.6503C476.864 63.8696 476.81 64.1438 476.81 64.4727C476.919 65.2402 477.029 66.0078 477.139 66.7753C477.248 67.4332 477.358 68.1459 477.467 68.9134C477.467 69.2424 477.467 69.7906 477.467 70.5581C477.577 71.216 477.632 71.9287 477.632 72.6963C477.632 73.4638 477.632 74.1765 477.632 74.8344C477.632 75.4923 477.632 75.9857 477.632 76.3146C477.303 78.1786 477.029 80.2619 476.81 82.5645C476.59 84.7575 476.645 86.8956 476.974 88.9789C477.193 90.0754 477.358 91.1718 477.467 92.2683C477.687 93.2551 477.906 94.3516 478.125 95.5577C478.016 97.2025 477.906 98.7375 477.796 100.163C477.687 101.479 477.577 102.794 477.467 104.11C477.467 104.987 477.467 105.865 477.467 106.742C477.577 107.619 477.632 108.496 477.632 109.373C477.413 111.128 477.084 113.047 476.645 115.13C476.207 117.213 475.932 119.077 475.823 120.722C476.042 121.38 476.207 122.038 476.316 122.695C476.426 123.353 476.59 123.956 476.81 124.505C477.029 126.807 477.029 129.329 476.81 132.07C476.7 134.702 476.426 136.895 475.987 138.649C476.097 139.197 476.152 139.8 476.152 140.458C476.261 141.116 476.316 141.774 476.316 142.432C475.987 144.296 475.823 146.434 475.823 148.846C475.823 151.259 475.932 153.232 476.152 154.767C476.371 155.645 476.371 156.905 476.152 158.55C475.932 160.305 475.603 161.291 475.165 161.511C475.165 157.673 475.055 154.219 474.836 151.149C474.726 148.079 474.397 144.844 473.849 141.445C474.068 140.787 474.178 140.129 474.178 139.472C474.288 138.814 474.452 138.156 474.671 137.498C474.452 135.744 474.288 134.099 474.178 132.564C474.178 131.029 473.959 129.439 473.52 127.794C473.63 127.356 473.685 126.917 473.685 126.478C473.685 126.04 473.739 125.601 473.849 125.163L472.862 123.682C472.533 122.476 472.478 121.051 472.698 119.406C472.917 117.652 473.136 116.446 473.356 115.788V109.373C473.575 108.167 473.739 106.742 473.849 105.097C473.959 103.343 473.904 101.643 473.685 99.9985C473.575 98.0248 473.41 95.9415 473.191 93.7486C473.082 91.446 472.972 89.1434 472.862 86.8408C472.753 84.4285 472.698 82.0711 472.698 79.7685C472.698 77.3563 472.862 75.1085 473.191 73.0252C472.972 71.4901 472.807 69.9551 472.698 68.42C472.588 66.8849 472.478 65.3499 472.369 63.8148C472.917 60.5254 473.356 57.0715 473.685 53.4531C474.014 49.8348 474.397 46.5453 474.836 43.5849C475.165 41.6112 475.275 39.8568 475.165 38.3218C475.055 36.7867 474.891 35.142 474.671 33.3876C474.562 31.8526 474.507 30.2627 474.507 28.618C474.507 26.9733 474.507 25.3834 474.507 23.8483C474.397 23.4097 474.342 22.7518 474.342 21.8747C474.342 20.9975 474.342 20.1203 474.342 19.2431C474.452 18.3659 474.562 17.5984 474.671 16.9405C474.781 16.2826 474.946 15.8989 475.165 15.7892V15.9537C475.494 16.6116 475.603 17.2146 475.494 17.7629C475.384 18.3111 475.439 19.0238 475.658 19.901C475.878 22.3133 476.097 24.6707 476.316 26.9733C476.535 29.2759 476.755 31.6333 476.974 34.0455C477.632 36.6771 478.235 39.3634 478.783 42.1046C479.441 44.8458 480.154 47.4773 480.921 49.9992C482.018 52.7404 483.114 55.4268 484.211 58.0583C485.307 60.6899 486.404 63.3762 487.5 66.1174C488.706 68.9682 489.693 71.7642 490.461 74.5054C491.338 77.137 492.654 79.5492 494.408 81.7422C494.518 81.7422 494.627 81.6873 494.737 81.5777C494.518 75.1085 494.463 68.3104 494.572 61.1833C494.682 53.9465 495.23 46.8195 496.217 39.802V31.7429C497.094 26.5895 497.697 21.3813 498.026 16.1182C498.355 10.8551 498.52 5.5372 498.52 0.164469Z" fill="black"/>
</svg>
