<?xml version="1.0" encoding="UTF-8"?>
<svg id="Calque_2" data-name="Calque 2" xmlns="http://www.w3.org/2000/svg" viewBox="0 0 20.32 12.16">
  <g id="Calque_1-2" data-name="Calque 1">
    <g>
      <path d="M10.54.43c-.24.3-.45.65-.62,1.07-.18.42-.32.87-.43,1.34-.11.48-.18.97-.22,1.49-.04.52-.04,1.02,0,1.52s.11.98.22,1.43c.11.45.25.86.43,1.22.14-.49.36-1.02.65-1.6s.63-1.17,1.03-1.76c.39-.6.82-1.18,1.3-1.75.47-.57.96-1.08,1.46-1.55.5-.46,1-.85,1.51-1.17s.99-.51,1.45-.59c.1-.03.19-.05.29-.07.1-.01.2-.02.29-.02v.12c-.38,0-.73.13-1.07.41-.34.28-.66.67-.96,1.15-.3.48-.57,1.04-.82,1.67-.24.63-.46,1.29-.64,1.97-.18.68-.32,1.37-.42,2.06s-.15,1.34-.16,1.93c0,.6.03,1.12.13,1.58.09.46.24.8.45,1.02l-.11.04c-.29-.2-.52-.49-.69-.86-.17-.38-.29-.81-.36-1.3-.07-.49-.09-1.02-.05-1.59.03-.57.11-1.15.23-1.75.12-.6.28-1.19.47-1.77.19-.58.42-1.14.67-1.66.26-.52.54-.99.85-1.42.31-.42.64-.77.99-1.04-.38.22-.77.53-1.17.92-.4.39-.81.83-1.21,1.31-.4.49-.79,1.01-1.16,1.58s-.71,1.13-1.03,1.7c-.31.57-.59,1.14-.82,1.69-.24.56-.41,1.07-.53,1.55l-.24-.28c.07.1.15.19.24.28l-.05.12c-.34-.26-.64-.59-.89-1s-.45-.87-.6-1.39c-.15-.51-.24-1.05-.26-1.62-.03-.57,0-1.14.1-1.7.1-.57.26-1.12.49-1.65.23-.53.54-1.01.92-1.45-.32.22-.62.53-.89.91-.27.38-.52.81-.76,1.29s-.45.98-.64,1.51c-.2.53-.38,1.04-.54,1.54s-.32.97-.46,1.4c-.14.44-.28.8-.41,1.1-.22.51-.46.99-.72,1.43s-.55.83-.89,1.16c-.34.33-.72.6-1.15.8-.43.2-.94.33-1.51.37-.11,0-.27,0-.47,0-.2-.01-.41-.03-.62-.07-.22-.03-.43-.07-.64-.12-.21-.05-.37-.1-.49-.17l.17-.16c.06.05.19.09.37.14s.38.08.59.11c.21.03.41.06.6.07.19.02.32.02.4.01.5-.03.93-.15,1.29-.37.36-.21.66-.48.92-.81.26-.33.49-.7.68-1.1.2-.41.38-.83.56-1.26.18-.42.36-.87.54-1.37.18-.5.38-1.01.59-1.54.21-.53.43-1.05.68-1.57.24-.52.51-1.01.8-1.46s.61-.86.95-1.22c.34-.36.72-.64,1.14-.84-.47,0-.99,0-1.54.02-.56.02-1.12.07-1.69.15-.57.08-1.13.2-1.67.35-.54.15-1.04.35-1.49.59-.45.24-.83.54-1.15.89-.31.35-.52.77-.62,1.25-.15.69-.11,1.23.13,1.62.24.39.65.59,1.22.59.22,0,.44-.05.65-.14.21-.09.4-.21.58-.37.18-.15.33-.33.47-.54.14-.21.25-.42.33-.65.08-.23.13-.47.16-.7.03-.24.02-.45-.02-.64s-.12-.35-.23-.47c-.12-.12-.28-.18-.49-.18-.12,0-.24.02-.35.06-.12.04-.22.09-.32.15-.1.06-.19.12-.26.19-.08.07-.13.13-.16.17l-.14-.08c.12-.16.3-.31.53-.45.24-.14.49-.21.77-.21.26,0,.49.07.68.2.19.14.34.31.44.51s.17.43.19.67c.02.24,0,.47-.08.69-.1.3-.23.56-.41.8-.18.24-.38.45-.62.62-.24.17-.5.31-.79.4s-.6.14-.92.14c-.42,0-.79-.07-1.09-.2-.3-.14-.55-.31-.73-.53-.18-.22-.3-.47-.36-.76s-.06-.59,0-.9c.11-.54.34-.99.7-1.36.35-.37.78-.68,1.28-.93s1.06-.44,1.68-.58c.62-.14,1.25-.24,1.89-.31.64-.07,1.28-.11,1.9-.13s1.2-.02,1.72-.01l.07.08Z"/>
      <path d="M20.14,8.81h.18l-.36,1.62h-5.26v-.18h.42c.16,0,.29-.05.39-.15.1-.1.15-.23.15-.39V2.75c0-.16-.05-.29-.15-.39-.1-.1-.23-.15-.39-.15h-.42v-.18h5.26l.12,1.26h-.18l-.06-.54c-.02-.16-.08-.29-.19-.39-.11-.1-.25-.15-.41-.15h-2.74v3.38h2.46c.16,0,.29-.05.39-.15s.15-.23.15-.39v-.54h.18v2.34h-.18v-.54c0-.16-.05-.29-.15-.39s-.23-.15-.39-.15h-2.46v4.48h2.74c.16,0,.3-.05.42-.14.12-.1.2-.22.24-.38l.24-.91ZM18.35,9.25h-.12v-.28c0-.25-.07-.45-.22-.59s-.35-.22-.59-.22h-.28v-.12h.28c.25,0,.45-.07.59-.22s.22-.35.22-.59v-.26h.12v.26c0,.25.07.45.22.59.15.15.35.22.59.22h.26v.12h-.26c-.25,0-.45.07-.59.22-.15.15-.22.35-.22.59v.28Z"/>
    </g>
  </g>
</svg>