<svg width="3" height="3" viewBox="0 0 3 3" fill="none" xmlns="http://www.w3.org/2000/svg">
<path d="M1.54776 2.53351H1.66776V2.25351C1.66776 2.01351 1.74776 1.81351 1.88776 1.66351C2.02776 1.51351 2.22776 1.44351 2.47776 1.44351H2.73776V1.32351H2.47776C2.23776 1.32351 2.03776 1.24351 1.88776 1.10351C1.73776 0.96351 1.66776 0.76351 1.66776 0.51351V0.25351H1.54776V0.51351C1.54776 0.75351 1.46776 0.95351 1.32776 1.10351C1.18776 1.25351 0.987762 1.32351 0.737762 1.32351H0.457764V1.44351H0.737762C0.977762 1.44351 1.17776 1.52351 1.32776 1.66351C1.47776 1.80351 1.54776 2.00351 1.54776 2.25351V2.53351Z" fill="black"/>
</svg>
